<?xml version="1.0" encoding="UTF-8"?>
<!DOCTYPE svg PUBLIC "-//W3C//DTD SVG 1.1//EN" "http://www.w3.org/Graphics/SVG/1.1/DTD/svg11.dtd">
<svg
    xmlns:svg="http://www.w3.org/2000/svg"
    xmlns="http://www.w3.org/2000/svg"
    xmlns:xlink="http://www.w3.org/1999/xlink"
    width="432"
    height="86"
    viewBox="0 0 432 86"
    version="1.1"
>
<defs>
<g id="main">
<g id="bold">
    <path
        d="m 17.552875,12.51702 c -0.544412,-0.635174 -1.351799,-1.076622 -2.422573,-1.324659 0.750375,-0.344807 1.204025,-0.577654 1.361269,-0.698575 0.381066,-0.284329 0.668384,-0.6019644 0.861634,-0.9527444 0.1936,-0.350908 0.290273,-0.7380128 0.290273,-1.1613776 0,-0.3931424 -0.0634,-0.7621008 -0.190517,-1.106907 C 17.325939,6.9278874 17.129383,6.613367 16.863263,6.3291005 16.591073,6.0448976 16.282558,5.8149103 15.937784,5.6394882 15.617162,5.4822757 15.326794,5.3643424 15.06668,5.2857202 14.443709,5.1223743 13.866024,5.0407014 13.333783,5.0407014 l -0.671435,0 c -0.120952,0 -0.24362,-0.00153 -0.367591,-0.00458 -0.123876,-0.00286 -0.188897,-0.00445 -0.194936,-0.00445 -0.03016,0 -0.07258,0.00159 -0.12718,0.00448 -0.05444,0.00305 -0.0969,0.00458 -0.127086,0.00458 l -0.408365,0.00912 -3.4477119,0.1179332 -2.3589825,0.05447 0.036292,0.7530121 c 0.508025,0.06661 0.8529583,0.1060478 1.0343548,0.1180604 0.3084824,0.018146 0.5171775,0.063622 0.6260854,0.1361111 0.06661,0.048463 0.1029016,0.084724 0.1089397,0.1089078 0.060444,0.1330602 0.093622,0.4627076 0.099787,0.9890058 0.024152,0.8952562 0.05145,2.1171098 0.081609,3.6655598 l 0.018146,4.509364 c 0,0.774114 -0.027171,1.361048 -0.081609,1.760196 -0.024184,0.1452 -0.087775,0.299425 -0.1905808,0.462772 -0.2782602,0.11485 -0.6502377,0.208695 -1.1159961,0.281247 -0.1390347,0.01805 -0.3447426,0.05438 -0.6169011,0.109003 l -0.018146,0.852831 c 1.4456117,-0.0485 2.2682206,-0.08167 2.4680815,-0.09985 1.2943416,-0.07875 2.195731,-0.111894 2.703788,-0.09985 l 1.787335,0.03614 c 0.701911,0.02415 1.300699,-0.0092 1.796615,-0.09976 0.786285,-0.145168 1.400104,-0.326787 1.841869,-0.544539 0.447517,-0.217721 0.870882,-0.544413 1.270031,-0.979853 0.302761,-0.332603 0.517208,-0.686466 0.644231,-1.061653 0.175453,-0.514 0.263069,-1.00086 0.263069,-1.460675 1.6e-4,-0.786191 -0.278005,-1.50005 -0.834621,-2.141263 z M 10.448629,6.0843994 c 0.471796,-0.078622 0.864971,-0.1179333 1.179492,-0.1179333 1.034291,0 1.805703,0.2268729 2.313696,0.6804916 0.513841,0.4535552 0.771063,1.0191961 0.771063,1.6966055 0,0.9618336 -0.269075,1.6392744 -0.807387,2.0324178 -0.53831,0.39311 -1.336799,0.589761 -2.395306,0.589761 -0.399212,0 -0.72886,-0.02114 -0.98891,-0.06346 -0.0062,-0.205707 -0.0092,-0.438555 -0.0092,-0.6987 l 0.0092,-0.8891556 c 0.006,-0.9495672 -0.01217,-1.7933414 -0.05447,-2.5314172 -0.01214,-0.1995744 -0.01818,-0.4322947 -0.01818,-0.6986058 z m 4.536664,10.4793426 c -0.223822,0.43544 -0.592908,0.777259 -1.106876,1.02536 -0.514221,0.24807 -1.167573,0.371915 -1.959865,0.371915 -0.387136,0 -0.810564,-0.09655 -1.270253,-0.290146 -0.07258,-0.175327 -0.108908,-0.308641 -0.109035,-0.39934 l -0.02714,-2.449808 0.0092,-1.569646 0,-1.306577 c 0.163346,-0.06047 0.468841,-0.09067 0.916421,-0.09067 1.010172,0 1.757114,0.0968 2.24105,0.290304 0.502018,0.193727 0.92853,0.574762 1.279374,1.143358 0.247974,0.399339 0.371945,0.943657 0.371945,1.633269 -1.27e-4,0.671244 -0.115105,1.218612 -0.344774,1.641977 z" />
</g>

<g id="italic">
    <path
        d="m 40.318889,5.0543979 c -0.21162,0.01519 -0.417392,0.028887 -0.617062,0.0409 -0.895258,0.054311 -1.542574,0.08161 -1.941692,0.08161 -0.205676,0 -0.426543,-0.00614 -0.662347,-0.018146 L 34.221685,5.0316756 34.04925,5.9662454 c 0.06045,0.012013 0.175423,0.024216 0.344807,0.036324 0.62294,0.036165 1.058509,0.1209525 1.306516,0.254013 l 0,0.344807 -0.07258,0.4535561 -0.199575,1.2249065 -0.145232,0.5716488 -0.263133,1.4244812 c 0,0.0062 -0.01062,0.04094 -0.03178,0.10446 -0.02117,0.06346 -0.04843,0.155687 -0.08161,0.27664 -0.03334,0.121048 -0.07106,0.261703 -0.113484,0.421967 -0.04242,0.160232 -0.09076,0.362953 -0.145232,0.607941 -0.05444,0.244924 -0.105889,0.500557 -0.154226,0.766647 l -0.10894,0.580737 -0.508026,2.431668 -0.245019,1.260912 c -0.07262,0.38736 -0.196524,0.692856 -0.371947,0.916456 -0.241968,0.12108 -0.592813,0.238949 -1.052535,0.354023 -0.441543,0.114819 -0.674391,0.175327 -0.698576,0.181397 l -0.154225,0.771382 c 0.145073,-0.01207 0.441448,-0.03925 0.889125,-0.08177 0.804496,-0.07255 1.330732,-0.105826 1.578675,-0.09976 l 1.796556,0.01805 c 0.762039,0.07875 1.200532,0.130073 1.315383,0.154416 0.114946,0.01805 0.19967,0.02717 0.254045,0.02717 0.108971,0 0.235898,-0.0061 0.381067,-0.01814 0.03022,-0.006 0.09985,-0.009 0.208695,-0.009 0.01208,-0.06045 0.03925,-0.184575 0.08164,-0.372169 0.03614,-0.175422 0.05733,-0.350813 0.06353,-0.526331 -0.18162,-0.03013 -0.381068,-0.06048 -0.599043,-0.09051 -0.332445,-0.03632 -0.692537,-0.09995 -1.079706,-0.19055 -0.01792,-0.12092 -0.02101,-0.202593 -0.0089,-0.245019 l 0.109004,-0.40827 0.390188,-2.132115 0.344775,-1.433602 0.553534,-2.821792 c 0.132933,-0.647252 0.332604,-1.5725736 0.598947,-2.7764425 0.02425,-0.2298289 0.0634,-0.4778674 0.117997,-0.7440521 0.07252,-0.3447433 0.145264,-0.6108325 0.217721,-0.7984584 0.223823,-0.090667 0.529414,-0.1843843 0.916392,-0.2811844 0.326883,-0.072489 0.656404,-0.16627 0.989008,-0.2811845 0.03642,-0.1330923 0.07592,-0.2873179 0.118092,-0.4627405 0.02438,-0.1150098 0.04242,-0.2298606 0.05438,-0.3447434 -0.006,-2.224e-4 -0.114977,0.00731 -0.326629,0.022405 z" />
</g>

<g id="strikethrough">
    <path
        d="m 56.252909,11.419106 6.740999,0 C 62.770123,11.2741 62.482781,11.116733 62.131945,10.947353 61.503175,10.669163 60.979623,10.469498 60.562211,10.348581 59.274003,9.9736568 58.430218,9.583416 58.030984,9.1782072 57.63175,8.7729352 57.432181,8.3495808 57.432181,7.9079861 c 0,-0.5323865 0.202715,-0.9739816 0.607924,-1.3247535 0.41131,-0.3567781 0.961746,-0.5353419 1.651278,-0.5353419 0.73793,0 1.373025,0.2752025 1.90538,0.8256392 0.320486,0.3386325 0.632171,0.9586325 0.934481,1.8599685 l 0.127241,0.018048 0.762114,0.054408 0.109,-0.027136 c 0.03022,-0.1634056 0.04544,-0.2993224 0.04544,-0.4083544 0,-0.3629432 -0.04239,-0.916272 -0.127242,-1.6603038 C 63.381034,6.2264227 63.317732,5.8693904 63.257289,5.6395042 62.586061,5.4218527 62.050561,5.2766246 61.651358,5.2041059 60.943713,5.0891628 60.438465,5.0316754 60.136346,5.0316754 c -1.572817,0 -2.761272,0.3842348 -3.565841,1.1522912 -0.810513,0.7741896 -1.215722,1.7088611 -1.215722,2.8036646 0,0.5503416 0.145165,1.1188598 0.435558,1.7056198 0.138935,0.272279 0.293188,0.514241 0.462568,0.725855 z" />
    <path
        d="m 60.852826,13.741834 c 0.623019,0.254037 1.037475,0.468924 1.243019,0.644152 0.490026,0.441626 0.734944,0.91643 0.734944,1.42441 0,0.411406 -0.142273,0.80152 -0.426532,1.170501 -0.272088,0.362784 -0.640975,0.623241 -1.106848,0.780196 -0.453417,0.163659 -0.873943,0.245108 -1.260879,0.245108 -0.4415,0 -0.840702,-0.06667 -1.197576,-0.199665 -0.374987,-0.127114 -0.692582,-0.29929 -0.952721,-0.517197 -0.272152,-0.223816 -0.514178,-0.508075 -0.725855,-0.852937 -0.03029,-0.04821 -0.06814,-0.129974 -0.113481,-0.24479 -0.04529,-0.11507 -0.113481,-0.284291 -0.204114,-0.50798 -0.09076,-0.223912 -0.181392,-0.438608 -0.272151,-0.644216 l -0.925424,0.01814 0,0.399202 -0.01814,0.335932 c -0.006,0.229696 -0.006,0.435335 0,0.616822 0.01201,0.290266 0.01814,0.762114 0.01814,1.415514 l 0,0.117993 c 0,0.08472 0.02415,0.151075 0.07249,0.199665 0.09073,0.0723 0.308475,0.157145 0.653273,0.253942 l 1.270157,0.36288 c 0.489867,0.139222 1.079677,0.208817 1.769209,0.208817 0.744063,0 1.357676,-0.06353 1.841822,-0.19064 0.441628,-0.109095 0.90391,-0.308665 1.388216,-0.598803 0.43543,-0.278412 0.765164,-0.523202 0.988981,-0.735166 0.290043,-0.29624 0.505057,-0.610752 0.644151,-0.943633 0.248192,-0.610847 0.372032,-1.252044 0.372032,-1.923271 0,-0.320709 -0.02098,-0.598804 -0.06318,-0.834792 l -3.729533,0 0,-1.9e-4 z" />
    <path
        d="m 68.047813,12.081403 c -0.05459,-0.05438 -0.123968,-0.08154 -0.208784,-0.08154 l -15.67812,0 c -0.08472,0 -0.154221,0.02717 -0.20869,0.08154 -0.05431,0.05438 -0.08161,0.123968 -0.08161,0.208817 l 0,0.580499 c 0,0.08485 0.02717,0.154317 0.08161,0.208817 0.05447,0.05438 0.124095,0.08135 0.20869,0.08135 l 15.67812,0 c 0.08482,0 0.154221,-0.02698 0.208784,-0.08135 0.05438,-0.0545 0.08154,-0.123968 0.08154,-0.208817 l 0,-0.580499 c 0,-0.08485 -0.02717,-0.154444 -0.08154,-0.208817 z" />
</g>

<g id="link">
    <path
        d="m 90.250764,13.537049 -1.776328,-1.77615 c -0.47808,-0.478112 -1.058696,-0.717303 -1.741896,-0.717303 -0.694608,0 -1.286528,0.250497 -1.776216,0.75149 l -0.751488,-0.75149 c 0.501024,-0.489567 0.751488,-1.0844192 0.751488,-1.7847632 0,-0.683176 -0.236224,-1.2609184 -0.708808,-1.7335274 l -1.75916,-1.767595 c -0.47252,-0.483885 -1.053192,-0.7259172 -1.742016,-0.7259172 -0.683176,0 -1.261012,0.2363493 -1.733531,0.7088685 l -1.255326,1.2467412 c -0.483914,0.4726388 -0.725827,1.0503819 -0.725827,1.7334979 0,0.6831752 0.239161,1.2639392 0.717303,1.7421112 l 1.776209,1.77615 c 0.47826,0.478201 1.05894,0.717303 1.742108,0.717303 0.694488,0 1.286584,-0.250467 1.776152,-0.751521 l 0.751488,0.751521 c -0.500992,0.489657 -0.751488,1.084479 -0.751488,1.784793 0,0.683236 0.236232,1.260829 0.708784,1.733528 l 1.759304,1.767504 c 0.472608,0.483856 1.053072,0.725918 1.741904,0.725918 0.683264,0 1.260832,-0.2362 1.733528,-0.708809 l 1.255416,-1.246711 C 90.72622,16.53999 90.968308,15.962306 90.968308,15.279161 90.968164,14.596074 90.72906,14.01546 90.250764,13.537049 Z M 83.043548,9.8824576 c -0.01704,-0.01708 -0.06984,-0.071128 -0.157928,-0.162232 -0.08817,-0.091106 -0.1494,-0.1523024 -0.183528,-0.183648 -0.03416,-0.031312 -0.08829,-0.074 -0.162288,-0.1281944 -0.07408,-0.054104 -0.146616,-0.091046 -0.217744,-0.110996 -0.0712,-0.01992 -0.149496,-0.029848 -0.234912,-0.029848 -0.227648,0 -0.421256,0.079736 -0.58068,0.2390712 -0.159416,0.1593312 -0.23904,0.3529088 -0.23904,0.5806736 0,0.08533 0.0099,0.163638 0.02984,0.234824 0.01992,0.07125 0.05696,0.143808 0.111,0.217775 0.05408,0.074 0.09682,0.128105 0.128104,0.162292 0.0312,0.03413 0.09242,0.09535 0.183528,0.183619 0.0911,0.08823 0.145152,0.140846 0.162232,0.157954 -0.170816,0.17641 -0.37576,0.264645 -0.6148,0.264645 -0.233416,0 -0.427024,-0.07681 -0.580672,-0.230458 L 78.910299,9.3016968 C 78.750968,9.142276 78.671257,8.9486976 78.671257,8.7209328 c 0,-0.2219624 0.07962,-0.4126392 0.239042,-0.57206 L 80.165652,6.9020121 C 80.330844,6.7482743 80.524308,6.671555 80.74642,6.671555 c 0.22764,0 0.421224,0.07965 0.580672,0.2390712 l 1.759104,1.7675954 c 0.159416,0.15942 0.23904,0.352968 0.23904,0.5806736 2.4e-5,0.2390112 -0.09389,0.446856 -0.281696,0.6235648 z m 6.046264,5.9686724 -1.255416,1.246832 c -0.15948,0.147905 -0.352944,0.222022 -0.5808,0.222022 -0.23356,0 -0.426816,-0.07675 -0.580552,-0.230517 l -1.759096,-1.767714 c -0.159456,-0.159481 -0.238984,-0.352939 -0.238984,-0.580555 0,-0.239101 0.09386,-0.446886 0.281784,-0.623356 0.0172,0.01696 0.06984,0.07122 0.15804,0.162113 0.08824,0.09111 0.149432,0.152332 0.183648,0.183648 0.03416,0.03143 0.08821,0.07412 0.162112,0.128254 0.07416,0.05417 0.14656,0.0912 0.217808,0.111057 0.07128,0.01995 0.149464,0.02988 0.234824,0.02988 0.227856,0 0.421312,-0.07971 0.580792,-0.239102 0.15924,-0.159361 0.239104,-0.352938 0.239104,-0.580554 0,-0.08536 -0.01016,-0.163668 -0.02992,-0.234824 -0.02,-0.07125 -0.05688,-0.143837 -0.111264,-0.217805 -0.05416,-0.0739 -0.09661,-0.128135 -0.128048,-0.162352 -0.03128,-0.03398 -0.09254,-0.0952 -0.183616,-0.183647 -0.0911,-0.0882 -0.145152,-0.140847 -0.162352,-0.157806 0.170936,-0.182212 0.375848,-0.273318 0.614776,-0.273318 0.227824,0 0.42128,0.07965 0.580552,0.2391 l 1.776296,1.77612 c 0.15948,0.15948 0.239136,0.353148 0.239136,0.580764 0,0.221813 -0.07968,0.412729 -0.238832,0.57176 z" />
</g>

<g id="quote">
    <path
        d="m 105.85584,11.46403 -1.87611,0 c -0.22336,0 -0.41325,-0.07815 -0.5696,-0.234507 -0.15627,-0.156357 -0.23451,-0.346186 -0.23451,-0.569604 l 0,-0.26789 c 0,-0.5918986 0.20943,-1.0971706 0.62825,-1.5159906 0.41879,-0.4186736 0.92415,-0.6280992 1.51599,-0.6280992 l 0.53598,0 c 0.14516,0 0.27074,-0.053064 0.37688,-0.1591144 0.10608,-0.1061058 0.15911,-0.2316903 0.15911,-0.3768709 l 0,-1.0721473 c 0,-0.1451511 -0.053,-0.2708529 -0.15911,-0.3769588 -0.10611,-0.1059592 -0.23169,-0.1591148 -0.37688,-0.1591148 l -0.53598,0 c -0.58075,0 -1.13481,0.1131757 -1.66252,0.3392044 -0.52766,0.2261752 -0.98406,0.531908 -1.36938,0.9172274 -0.38528,0.3851434 -0.69093,0.841572 -0.91708,1.3692848 -0.22614,0.5276544 -0.33923,1.0818568 -0.33923,1.6625494 l 0,5.896135 c 0,0.446924 0.15627,0.826406 0.46895,1.139208 0.31272,0.312627 0.69249,0.468926 1.13916,0.468926 l 3.21629,0 c 0.44663,0 0.82629,-0.156299 1.13903,-0.468926 0.31263,-0.312802 0.46899,-0.692284 0.46899,-1.139208 l 0,-3.216001 c 0,-0.446835 -0.15636,-0.826317 -0.46919,-1.139149 -0.3126,-0.312598 -0.6924,-0.468954 -1.13904,-0.468954 z" />
    <path
        d="m 114.49959,11.932984 c -0.3126,-0.312598 -0.69229,-0.468954 -1.13903,-0.468954 l -1.87609,0 c -0.22324,0 -0.41331,-0.07815 -0.56939,-0.234507 -0.15642,-0.156357 -0.23452,-0.346186 -0.23452,-0.569604 l 0,-0.26789 c 0,-0.5918986 0.20943,-1.0971706 0.62804,-1.5159906 0.41865,-0.4186736 0.92398,-0.6280992 1.51612,-0.6280992 l 0.53586,0 c 0.14518,0 0.27086,-0.053064 0.3769,-0.1591144 0.10599,-0.1061058 0.15924,-0.2316903 0.15924,-0.3768709 l 0,-1.0721473 c 0,-0.1451511 -0.0532,-0.2708529 -0.15924,-0.3769588 -0.10601,-0.1059592 -0.23168,-0.1591148 -0.3769,-0.1591148 l -0.53586,0 c -0.58108,0 -1.13502,0.1131757 -1.66288,0.3392044 -0.52756,0.2261752 -0.98382,0.531908 -1.36914,0.9172274 -0.38531,0.3851434 -0.6911,0.841572 -0.91717,1.3692848 -0.22609,0.5276544 -0.33932,1.0818568 -0.33932,1.6625494 l 0,5.896135 c 0,0.446924 0.15642,0.826406 0.46902,1.139208 0.31262,0.312627 0.69231,0.468926 1.13903,0.468926 l 3.21612,0 c 0.44674,0 0.8264,-0.156299 1.139,-0.468926 0.31283,-0.312802 0.46893,-0.692284 0.46893,-1.139208 l 0,-3.216001 c 2e-5,-0.446865 -0.1561,-0.826317 -0.46872,-1.139149 z" />
</g>

<g id="code">
    <path
        d="m 127.27998,8.08 c 0.16,1.04 0.32,1.28 0.32,2.32 0,0.64 -1.2,1.2 -1.2,1.2 l 0,0.8 c 0,0 1.2,0.56 1.2,1.2 0,1.04 -0.16,1.28 -0.32,2.32 -0.24,1.68 0.64,2.48 1.44,2.48 0.8,0 1.68,0 1.68,0 l 0,-1.6 c 0,0 -1.44,0.16 -1.44,-0.8 0,-0.72 0.16,-0.72 0.32,-2.32 0.08,-0.72 -0.4,-1.28 -0.88,-1.68 0.48,-0.4 0.96,-0.88 0.88,-1.6 -0.24,-1.6 -0.32,-1.6 -0.32,-2.32 0,-0.96 1.44,-0.88 1.44,-0.88 l 0,-1.6 c 0,0 -0.8,0 -1.68,0 -0.88,0 -1.68,0.8 -1.44,2.48 z" />
    <path
        d="m 136.71998,8.08 c -0.16,1.04 -0.32,1.28 -0.32,2.32 0,0.64 1.2,1.2 1.2,1.2 l 0,0.8 c 0,0 -1.2,0.56 -1.2,1.2 0,1.04 0.16,1.28 0.32,2.32 0.24,1.68 -0.64,2.48 -1.44,2.48 -0.8,0 -1.68,0 -1.68,0 l 0,-1.6 c 0,0 1.44,0.16 1.44,-0.8 0,-0.72 -0.16,-0.72 -0.32,-2.32 -0.08,-0.72 0.4,-1.28 0.88,-1.68 -0.48,-0.4 -0.96,-0.88 -0.88,-1.6 0.16,-1.6 0.32,-1.6 0.32,-2.32 0,-0.96 -1.44,-0.88 -1.44,-0.88 l 0,-1.6 c 0,0 0.8,0 1.68,0 0.88,0 1.68,0.8 1.44,2.48 z" />
</g>

<g id="image">
    <path
        d="m 162.62696,6.7665342 c -0.22741,-0.2274148 -0.50069,-0.3411094 -0.82019,-0.3411094 l -11.61374,0 c -0.31937,0 -0.5927,0.1136692 -0.82027,0.3411094 -0.22744,0.2274657 -0.34111,0.5007957 -0.34111,0.8201934 l 0,8.8264154 c 0,0.319474 0.11367,0.592829 0.34111,0.82027 0.22757,0.22744 0.5009,0.34116 0.82027,0.34116 l 11.61392,0 c 0.31932,0 0.59268,-0.11372 0.82012,-0.34116 0.22741,-0.227415 0.34123,-0.500771 0.34123,-0.82027 l 0,-8.8264154 c 0,-0.3193977 -0.11382,-0.5927277 -0.34134,-0.8201934 z m -0.58797,9.6466088 c 0,0.063 -0.0229,0.117279 -0.0688,0.163398 -0.046,0.04576 -0.10048,0.06872 -0.1634,0.06872 l -11.61375,0 c -0.0629,0 -0.11732,-0.02296 -0.16329,-0.06872 -0.0459,-0.0461 -0.069,-0.100399 -0.069,-0.163398 l 0,-8.8265171 c 0,-0.062898 0.023,-0.1172285 0.069,-0.1632963 0.046,-0.045839 0.10045,-0.068847 0.16329,-0.068847 l 11.61392,0 c 0.0628,0 0.11728,0.023009 0.16323,0.068847 0.0458,0.046068 0.0688,0.1003982 0.0688,0.1632963 l 0,8.8265171 0,0 z" />
    <path
        d="m 152.2836,11.070839 c 0.38717,0 0.7162,-0.135431 0.98722,-0.406448 0.27094,-0.271017 0.40645,-0.600024 0.40645,-0.9870998 0,-0.3872024 -0.13559,-0.7162104 -0.40645,-0.987252 C 152.9998,8.419124 152.67075,8.283616 152.2836,8.283616 c -0.38713,0 -0.71614,0.135508 -0.98716,0.4064232 -0.27091,0.271016 -0.40642,0.600024 -0.40642,0.987252 0,0.3870758 0.13543,0.7161598 0.40642,0.9870998 0.27102,0.27094 0.60003,0.406448 0.98716,0.406448 z" />
    <polygon
       transform="matrix(0.02542368,0,0,0.02542368,149.03165,5.0316732)"
       points="73.092,420.267 475.085,420.267 475.085,292.36 356.315,173.587 210.134,319.765 164.452,274.088 73.092,365.447 "
       id="polygon4333" />
</g>

<g id="snippet">
    <path
        d="m 177.29218,14.003238 -2.0037,-2.003726 2.0037,-2.0037256 c 0.36517,-0.3651936 0.36517,-0.9567112 0,-1.3218768 -0.36469,-0.3651376 -0.95668,-0.3651376 -1.32179,0 l -2.66489,2.6646364 c -0.17527,0.175302 -0.27385,0.413083 -0.27385,0.660966 0,0.247856 0.0986,0.485637 0.27385,0.66091 l 2.66489,2.664636 c 0.18255,0.182556 0.42172,0.273875 0.66091,0.273875 0.23916,0 0.47855,-0.09132 0.66088,-0.273875 0.36517,-0.365165 0.36517,-0.956682 0,-1.32182 z" />
    <path
        d="m 186.6944,11.338546 -2.66483,-2.6646364 c -0.36517,-0.3651376 -0.95717,-0.3651376 -1.32185,0 -0.36514,0.3651376 -0.36514,0.9566544 0,1.3218768 l 2.00372,2.0037256 -2.00372,2.003726 c -0.36514,0.365138 -0.36514,0.956655 0,1.32182 0.18239,0.182556 0.42177,0.273875 0.66094,0.273875 0.23916,0 0.47833,-0.09132 0.66091,-0.273875 l 2.66483,-2.664636 c 0.17528,-0.175273 0.27391,-0.413054 0.27391,-0.66091 0,-0.247883 -0.0986,-0.485664 -0.27391,-0.660966 z" />
    <path
        d="m 182.12989,6.6866075 c -0.47627,-0.1930806 -1.02376,0.033836 -1.2189,0.5116551 l -3.63659,8.8949424 c -0.19534,0.477875 0.0335,1.023733 0.51143,1.219128 0.1157,0.04702 0.23553,0.06985 0.35349,0.06985 0.36835,0 0.71752,-0.219523 0.86541,-0.581471 l 3.63659,-8.8948858 c 0.19534,-0.4779323 -0.0335,-1.0238181 -0.51143,-1.2192127 z" />
</g>

<g id="olist">
    <path
        d="m 222.52488,10.506887 c -0.41487,0 -0.76737,0.145107 -1.05778,0.435483 -0.29026,0.290268 -0.43546,0.64278 -0.43546,1.057643 0,0.414673 0.1452,0.767401 0.43557,1.057724 0.29038,0.290268 0.64297,0.435401 1.05778,0.435401 0.41473,0 0.76726,-0.145133 1.05767,-0.435401 0.2903,-0.290295 0.43548,-0.643024 0.43548,-1.057724 0,-0.414863 -0.14518,-0.767375 -0.43557,-1.05767 -0.29032,-0.290268 -0.64289,-0.435456 -1.05769,-0.435456 z" />
    <path
        d="m 222.52496,6.5249091 c -0.41486,0 -0.76737,0.1451885 -1.05778,0.4354838 -0.29026,0.2903769 -0.43546,0.642888 -0.43546,1.0576695 0,0.414836 0.14512,0.7673744 0.43546,1.0577512 0.29038,0.2902952 0.64297,0.4354288 1.05778,0.4354288 0.41472,0 0.76727,-0.1451608 1.05767,-0.4354288 0.29029,-0.2903768 0.43549,-0.6429424 0.43549,-1.0577512 0,-0.4147815 -0.1452,-0.7672926 -0.43549,-1.0576695 -0.29027,-0.2902953 -0.64281,-0.4354838 -1.05767,-0.4354838 z" />
    <path
        d="m 222.52496,14.488838 c -0.41486,0 -0.76748,0.145052 -1.05778,0.43532 -0.29026,0.290459 -0.43546,0.643024 -0.43546,1.057669 0,0.414999 0.14512,0.767375 0.43546,1.057833 0.29038,0.290295 0.64297,0.43543 1.05778,0.43543 0.41472,0 0.76727,-0.145135 1.05767,-0.43543 0.29029,-0.290458 0.43549,-0.642834 0.43549,-1.057833 0,-0.414673 -0.1452,-0.767401 -0.43549,-1.057669 -0.29027,-0.290268 -0.64281,-0.43532 -1.05767,-0.43532 z" />
    <path
        d="m 234.89448,7.0964832 c -0.0494,-0.049114 -0.10758,-0.073766 -0.17508,-0.073766 l -9.45705,0 c -0.0674,0 -0.12571,0.02457 -0.17496,0.073766 -0.0492,0.049358 -0.0738,0.1075702 -0.0738,0.1749617 l 0,1.4933167 c 0,0.067416 0.0246,0.1256032 0.0738,0.1749888 0.0493,0.049168 0.10762,0.073768 0.17496,0.073768 l 9.45705,0 c 0.0675,0 0.12574,-0.024512 0.17508,-0.073768 0.0493,-0.04936 0.0738,-0.1075704 0.0738,-0.1749888 l 0,-1.4932895 c -3e-5,-0.067391 -0.0246,-0.1257119 -0.0738,-0.1749889 z" />
    <path
        d="m 234.7194,11.004614 -9.45705,0 c -0.0674,0 -0.12571,0.02451 -0.17496,0.07387 -0.0492,0.04922 -0.0738,0.10757 -0.0738,0.174961 l 0,1.493263 c 0,0.06734 0.0246,0.125657 0.0738,0.174907 0.0493,0.04938 0.10762,0.07393 0.17496,0.07393 l 9.45705,0 c 0.0675,0 0.12574,-0.02451 0.17508,-0.07393 0.0493,-0.04925 0.0738,-0.107571 0.0738,-0.174907 l 0,-1.493263 c 0,-0.06739 -0.0246,-0.125848 -0.0738,-0.174961 -0.0494,-0.04925 -0.1076,-0.07387 -0.17508,-0.07387 z" />
    <path
        d="m 234.7194,14.986428 -9.45705,0 c -0.0674,0 -0.12571,0.0246 -0.17496,0.07393 -0.0492,0.0493 -0.0738,0.10757 -0.0738,0.17488 l 0,1.493262 c 0,0.0675 0.0246,0.12574 0.0738,0.175071 0.0493,0.04922 0.10762,0.07374 0.17496,0.07374 l 9.45705,0 c 0.0675,0 0.12574,-0.02451 0.17508,-0.07374 0.0493,-0.04933 0.0738,-0.107571 0.0738,-0.175071 l 0,-1.493262 c 0,-0.06731 -0.0246,-0.125766 -0.0738,-0.17488 -0.0494,-0.04914 -0.1076,-0.07393 -0.17508,-0.07393 z" />
</g>

<g id="ulist">
    <path
        d="m 199.09532,5.0316736 -0.82861,0 -1.06299,0.9926553 0.55488,0.5940929 c 0.21886,-0.1927654 0.34915,-0.3335955 0.39088,-0.4220798 l 0.0156,0 0,0.093823 c 0,0.2084253 -0.002,0.5236231 -0.004,0.9457576 -0.002,0.4220797 -0.004,0.739933 -0.004,0.9535871 l -0.83639,0 0,0.7738544 2.61855,0 0,-0.7738544 -0.84407,0 0,-3.157836 z" />
    <path
        d="m 210.87072,7.0365865 c -0.0497,-0.049526 -0.10819,-0.074248 -0.17603,-0.074248 l -9.50475,0 c -0.0678,0 -0.12623,0.024722 -0.17584,0.074248 -0.0494,0.049526 -0.0742,0.108114 -0.0742,0.1758734 l 0,1.5007553 c 0,0.06776 0.0246,0.1263472 0.0742,0.1758736 0.0496,0.049472 0.10811,0.074248 0.17584,0.074248 l 9.50483,0 c 0.0678,0 0.1264,-0.024776 0.17595,-0.074248 0.0495,-0.049528 0.0741,-0.1081144 0.0741,-0.1758736 l 0,-1.5007553 c 1.2e-4,-0.067732 -0.0246,-0.1263474 -0.0741,-0.1758734 z" />
    <path
        d="m 199.04841,16.553078 0.74257,-0.898887 0,-0.687861 -2.60292,0 0,1.188076 0.8285,0 0,-0.414276 c 0.0834,0 0.20973,-0.0023 0.37917,-0.0076 0.16925,-0.0054 0.29568,-0.0079 0.37907,-0.0079 l 0,0.0079 c -0.0991,0.0938 -0.19544,0.194024 -0.28927,0.300934 -0.0938,0.106882 -0.20453,0.24752 -0.33222,0.421861 -0.12761,0.174641 -0.21221,0.288039 -0.25393,0.340111 l 0.20317,0.437712 c 0.54714,-0.04178 0.82075,0.10409 0.82075,0.437712 0,0.145868 -0.056,0.25661 -0.16807,0.332035 -0.11195,0.07573 -0.24358,0.11348 -0.39471,0.11348 -0.29699,0 -0.5732,-0.117203 -0.82849,-0.351801 l -0.44565,0.68786 c 0.34391,0.343917 0.79206,0.515876 1.34448,0.515876 0.42206,0 0.77506,-0.119749 1.05918,-0.359495 0.28399,-0.239773 0.42597,-0.568057 0.42597,-0.98488 0,-0.265809 -0.0782,-0.495068 -0.23441,-0.68797 -0.15638,-0.192629 -0.36732,-0.320427 -0.63319,-0.382903 z" />
    <path
        d="m 199.11078,13.191991 -0.9927,0 c 0.006,-0.130317 0.0978,-0.267095 0.27755,-0.410253 0.17978,-0.143239 0.37636,-0.274788 0.59012,-0.394702 0.21357,-0.119941 0.40899,-0.287847 0.58621,-0.504075 0.17719,-0.216283 0.26575,-0.454687 0.26575,-0.715239 0,-0.370008 -0.13023,-0.663139 -0.39076,-0.879394 -0.26047,-0.216228 -0.58103,-0.3243968 -0.96142,-0.3243968 -0.3023,0 -0.5772,0.074248 -0.82472,0.2227988 -0.24749,0.148496 -0.43374,0.355661 -0.55883,0.621497 l 0.66446,0.461148 c 0.18241,-0.302303 0.39344,-0.453373 0.6331,-0.453373 0.13038,0 0.23326,0.03518 0.30885,0.105514 0.0754,0.07047 0.11337,0.170699 0.11337,0.300989 0,0.119831 -0.0613,0.237089 -0.18373,0.351719 -0.12252,0.11463 -0.2697,0.227946 -0.44171,0.340002 -0.17193,0.112056 -0.34395,0.235857 -0.51585,0.371322 -0.17193,0.135491 -0.31925,0.312569 -0.44171,0.531426 -0.1224,0.218856 -0.18365,0.461229 -0.18365,0.726956 0,0.09377 0.0156,0.234488 0.0469,0.422079 l 2.82955,0 0,-1.242995 0,-1.1e-4 -0.82073,0 0,0.469087 z" />
    <path
        d="m 210.69472,14.96633 -9.50478,0 c -0.0729,0 -0.13286,0.02349 -0.17968,0.07034 -0.0469,0.04687 -0.0703,0.1068 -0.0703,0.179707 l 0,1.500809 c 0,0.06776 0.0246,0.126376 0.0742,0.175847 0.0496,0.0495 0.10811,0.07422 0.17584,0.07422 l 9.50483,0 c 0.0678,0 0.1264,-0.02453 0.17595,-0.07422 0.0495,-0.04947 0.0741,-0.108087 0.0741,-0.175847 l 0,-1.500782 c 0,-0.06765 -0.0248,-0.126293 -0.0741,-0.175764 -0.0496,-0.0495 -0.10819,-0.0743 -0.176,-0.0743 z" />
    <path
        d="m 210.69472,10.964334 -9.50478,0 c -0.0729,0 -0.13286,0.02341 -0.17968,0.0703 -0.0469,0.0469 -0.0703,0.106855 -0.0703,0.179788 l 0,1.500784 c 0,0.06776 0.0246,0.126292 0.0742,0.175872 0.0496,0.04955 0.10811,0.0743 0.17584,0.0743 l 9.50483,0 c 0.0678,0 0.1264,-0.02475 0.17595,-0.0743 0.0495,-0.04958 0.0741,-0.108113 0.0741,-0.175872 l 0,-1.500784 c 0,-0.06773 -0.0248,-0.126347 -0.0741,-0.175845 -0.0496,-0.0495 -0.10819,-0.07425 -0.176,-0.07425 z" />
</g>

<g id="header">
    <path
        d="m 253.30972,18.940042 0,-0.816449 0.257,0 c 0.22138,0 0.42805,-0.01603 0.62136,-0.04677 0.1942,-0.03207 0.36168,-0.09755 0.50376,-0.195093 0.14209,-0.09755 0.25656,-0.239189 0.34253,-0.422255 0.0855,-0.183512 0.12783,-0.427155 0.12783,-0.73182 l 0,-4.556171 -6.32358,0 0,4.556171 c 0,0.304219 0.0423,0.547417 0.12784,0.732265 0.0855,0.182621 0.19954,0.324709 0.34208,0.42181 0.14253,0.09844 0.31134,0.162577 0.50778,0.195093 0.19687,0.03118 0.40176,0.04722 0.61734,0.04722 l 0.25701,0 0,0.816449 -5.65903,0 0,-0.816449 0.24721,0 c 0.22137,0 0.42805,-0.01603 0.6218,-0.04722 0.19331,-0.03162 0.36213,-0.09666 0.50823,-0.195093 0.1452,-0.09844 0.25923,-0.239189 0.34252,-0.42181 0.082,-0.183512 0.12249,-0.428046 0.12249,-0.732265 l 0,-9.531924 c 0,-0.2846214 -0.0427,-0.5135657 -0.12784,-0.6881692 -0.0864,-0.1746035 -0.20221,-0.308674 -0.34742,-0.4035478 -0.14565,-0.094874 -0.31447,-0.1567868 -0.50867,-0.1852934 -0.19197,-0.028952 -0.39642,-0.04276 -0.61156,-0.04276 l -0.24676,0 0,-0.8164494 5.65903,0 0,0.8164494 -0.25701,0 c -0.21514,0 -0.42002,0.01559 -0.61734,0.04766 -0.19599,0.031179 -0.3648,0.096655 -0.50778,0.1946472 -0.14209,0.097992 -0.25612,0.2387435 -0.34208,0.4227007 -0.0855,0.1830664 -0.12784,0.4271549 -0.12784,0.7309293 l 0,3.9299142 6.3227,0 0,-3.9299142 c 0,-0.3042199 -0.0427,-0.5478629 -0.12784,-0.7313748 -0.0851,-0.1835117 -0.19955,-0.3247089 -0.34208,-0.4222552 -0.14253,-0.097992 -0.31001,-0.1630227 -0.50376,-0.1946472 -0.19376,-0.03207 -0.39954,-0.04766 -0.6218,-0.04766 l -0.25701,0 0,-0.8164494 5.65902,0 0,0.8164494 -0.24632,0 c -0.22181,0 -0.42804,0.01559 -0.6218,0.04766 -0.19331,0.031179 -0.36168,0.096655 -0.50821,0.1946472 -0.14521,0.097992 -0.25924,0.2387435 -0.34209,0.4222552 -0.0828,0.1830664 -0.12338,0.4271549 -0.12338,0.7313748 l 0,9.5506302 c 0,0.285067 0.0432,0.514457 0.12783,0.688169 0.0855,0.174604 0.20178,0.306002 0.34699,0.393749 0.1452,0.08908 0.31401,0.147433 0.50821,0.176386 0.19332,0.0285 0.39732,0.04276 0.61156,0.04276 l 0.24766,0 0,0.816448 -5.65858,0 z" />
</g>

<g id="hr">
    <path
        d="m 282.69129,10.376755 c -0.18482,-0.184786 -0.4093,-0.277179 -0.67317,-0.277179 l -12.03633,0 c -0.26387,0 -0.48828,0.09239 -0.67307,0.277179 -0.18479,0.184752 -0.27708,0.409027 -0.27708,0.673033 l 0,1.900562 c 0,0.264076 0.0923,0.48835 0.27708,0.672929 0.18479,0.184856 0.4092,0.277145 0.67307,0.277145 l 12.03629,0 c 0.26387,0 0.48836,-0.09229 0.67317,-0.277145 0.18462,-0.184579 0.27705,-0.408853 0.27705,-0.672929 l 0,-1.900562 c 3e-5,-0.264006 -0.0922,-0.488385 -0.27701,-0.673033 z" />
</g>

<g id="redo">
    <path
        d="m 306.86671,9.8938152 -4.00886,-4.0087759 c -0.0992,-0.099192 -0.21659,-0.148801 -0.35231,-0.148801 -0.13572,0 -0.2532,0.049608 -0.35232,0.148801 -0.0992,0.099252 -0.14885,0.2167054 -0.14885,0.3524005 l 0,2.0043858 -1.75385,0 c -3.72186,0 -6.0054,1.0518176 -6.85112,3.1553964 -0.27657,0.699368 -0.41484,1.568569 -0.41484,2.607302 0,0.86643 0.33148,2.043466 0.99436,3.531158 0.0157,0.03662 0.043,0.09911 0.0822,0.187828 0.0392,0.08866 0.0744,0.166957 0.10569,0.234887 0.0314,0.06777 0.0654,0.125192 0.10188,0.172114 0.0626,0.08877 0.1357,0.133251 0.21923,0.133251 0.0783,0 0.13964,-0.02607 0.18404,-0.07827 0.0442,-0.05216 0.0665,-0.117484 0.0665,-0.195584 0,-0.0471 -0.006,-0.116168 -0.0196,-0.207573 -0.013,-0.09141 -0.0196,-0.152586 -0.0196,-0.183959 -0.0261,-0.354814 -0.0392,-0.676084 -0.0392,-0.962966 0,-0.52717 0.0458,-0.999573 0.137,-1.417132 0.0914,-0.417638 0.21798,-0.779028 0.37984,-1.084422 0.16182,-0.305503 0.37054,-0.568908 0.62638,-0.790768 0.25573,-0.221861 0.53104,-0.403188 0.82596,-0.544147 0.29497,-0.140989 0.64208,-0.251917 1.04139,-0.332788 0.3993,-0.0809 0.80119,-0.137036 1.20578,-0.168383 0.40458,-0.03137 0.86261,-0.0469 1.37418,-0.0469 l 1.75384,0 0,2.004439 c 0,0.135695 0.0495,0.253179 0.14867,0.352317 0.0993,0.09908 0.21668,0.148746 0.35232,0.148746 0.13568,0 0.25317,-0.04966 0.3525,-0.148746 l 4.00878,-4.00891 c 0.0992,-0.09919 0.14875,-0.216596 0.14875,-0.352316 -3e-5,-0.135695 -0.0496,-0.2531788 -0.14867,-0.3525636 z" />
</g>

<g id="resize-max">
    <path
        d="m 322.75708,12.208577 c -0.0605,-0.06045 -0.13008,-0.0907 -0.2087,-0.0907 -0.0786,0 -0.14826,0.03022 -0.2087,0.0907 l -3.0124,3.012395 -1.30656,-1.306726 c -0.11496,-0.114728 -0.25092,-0.172283 -0.40829,-0.172283 -0.15738,0 -0.2935,0.05755 -0.40842,0.172283 -0.11495,0.115078 -0.17237,0.251226 -0.17237,0.408509 l 0,4.064971 c 0,0.157252 0.0574,0.293304 0.17237,0.408287 0.11502,0.114823 0.25114,0.172378 0.40842,0.172378 l 4.06493,0 c 0.15729,0 0.29334,-0.05755 0.40829,-0.172378 0.11489,-0.114951 0.17239,-0.251004 0.17239,-0.408287 0,-0.157282 -0.0575,-0.293431 -0.17239,-0.408508 l -1.30657,-1.306313 3.0124,-3.012587 c 0.0605,-0.06048 0.0907,-0.129856 0.0907,-0.208608 0,-0.07875 -0.0303,-0.148098 -0.0907,-0.208799 l -1.0344,-1.034334 z" />
    <path
        d="m 330.79613,5.203988 c -0.11485,-0.1149507 -0.251,-0.1723784 -0.40829,-0.1723784 l -4.06496,0 c -0.15725,0 -0.29324,0.057428 -0.40829,0.1723784 -0.11486,0.1148872 -0.17228,0.2510038 -0.17228,0.4082864 0,0.1572826 0.0574,0.293431 0.17228,0.4082864 l 1.30637,1.3065673 -3.01236,3.0123949 c -0.0604,0.06058 -0.0907,0.130079 -0.0907,0.208704 0,0.07862 0.0303,0.148257 0.0907,0.208704 l 1.03452,1.034398 c 0.0605,0.06048 0.12986,0.09067 0.20859,0.09067 0.0787,0 0.14813,-0.03019 0.20857,-0.09067 l 3.01262,-3.0123962 1.30631,1.3064722 c 0.11505,0.114919 0.25123,0.172505 0.40851,0.172505 0.15728,0 0.29331,-0.05758 0.40828,-0.172505 0.11486,-0.1148554 0.17229,-0.2510034 0.17229,-0.4082866 l 0,-4.0649394 c 10e-5,-0.1574096 -0.057,-0.293272 -0.17216,-0.408191 z" />
</g>

<g id="resize-restore">
    <path
        d="m 354.96829,6.3886321 c 0,-0.080008 -0.0309,-0.1506744 -0.0924,-0.212289 l -1.05229,-1.0521993 c -0.0615,-0.061614 -0.13209,-0.092325 -0.21216,-0.092325 -0.0801,0 -0.15068,0.030807 -0.21216,0.092325 L 350.33479,8.188352 349.00604,6.85934 c -0.1168,-0.1169254 -0.25555,-0.1754042 -0.41553,-0.1754042 -0.15986,0 -0.29828,0.058479 -0.41531,0.1754042 -0.11682,0.1168931 -0.17527,0.2553157 -0.17527,0.4153002 l 0,4.1347698 c 0,0.16008 0.0585,0.298471 0.17527,0.415428 0.11703,0.116861 0.25542,0.17534 0.41531,0.17534 l 4.13477,0 c 0.15998,0 0.29869,-0.05848 0.41552,-0.17534 0.1168,-0.116924 0.17544,-0.255315 0.17544,-0.415428 0,-0.159952 -0.0586,-0.298408 -0.17544,-0.415301 l -1.32908,-1.329077 3.06437,-3.0641434 c 0.0614,-0.061485 0.0922,-0.1322804 0.0922,-0.2122565 z" />
    <path
        d="m 347.40923,12.000275 -4.1348,0 c -0.15995,0 -0.29841,0.05848 -0.41531,0.175405 -0.11692,0.116796 -0.1754,0.255412 -0.1754,0.4153 0,0.159952 0.0585,0.298439 0.1754,0.4153 l 1.32902,1.329045 -3.06414,3.064143 c -0.0617,0.06152 -0.0924,0.132346 -0.0924,0.212192 0,0.08011 0.0306,0.150869 0.0924,0.212386 l 1.052,1.052102 c 0.0616,0.06149 0.13231,0.09203 0.21228,0.09203 0.08,0 0.15081,-0.03052 0.2123,-0.09203 l 3.06421,-3.064273 1.32901,1.328947 c 0.11686,0.116829 0.25532,0.17547 0.4153,0.17547 0.16008,0 0.29847,-0.05861 0.41539,-0.17547 0.1169,-0.116698 0.17535,-0.255315 0.17535,-0.4153 l 0,-4.134768 c 0,-0.159985 -0.0585,-0.298472 -0.17525,-0.415074 -0.11689,-0.116926 -0.25531,-0.175405 -0.41536,-0.175405 z" />
</g>

<g id="preview">
    <path
        d="m 378.8128,11.463482 c -0.72597,-1.187307 -1.70208,-2.1413036 -2.9282,-2.8619628 -1.22621,-0.7206865 -2.52104,-1.0810706 -3.88464,-1.0810706 -1.3636,0 -2.65848,0.3602479 -3.88468,1.0810706 -1.22624,0.7206592 -2.2023,1.6746558 -2.92816,2.8619628 -0.10364,0.181444 -0.15548,0.360329 -0.15548,0.536653 0,0.176324 0.0518,0.355209 0.15548,0.536599 0.72586,1.187361 1.70192,2.14144 2.92816,2.861936 1.2262,0.720768 2.52108,1.08088 3.88468,1.08088 1.36364,0 2.65845,-0.358914 3.88464,-1.076958 1.22612,-0.718072 2.2024,-1.673403 2.9282,-2.865858 0.10368,-0.18139 0.15548,-0.360193 0.15548,-0.536599 0,-0.176324 -0.0518,-0.355209 -0.15548,-0.536653 z m -8.48115,-2.1270844 c 0.46401,-0.4640048 1.02006,-0.6960888 1.66823,-0.6960888 0.10364,0 0.19185,0.036392 0.26448,0.1089328 0.0725,0.072568 0.10895,0.1607424 0.10895,0.2644176 0,0.1037568 -0.0364,0.1918784 -0.10879,0.264336 -0.0725,0.072648 -0.16077,0.1089328 -0.26445,0.1089328 -0.44587,0 -0.82706,0.1582096 -1.14329,0.4744104 -0.31634,0.3163916 -0.47441,0.6974236 -0.47441,1.1432866 0,0.103811 -0.0364,0.191878 -0.10893,0.2645 -0.0726,0.07267 -0.16074,0.108932 -0.26442,0.108932 -0.10375,0 -0.19187,-0.03634 -0.2645,-0.108932 -0.0726,-0.07262 -0.10893,-0.160798 -0.10893,-0.2645 0,-0.648038 0.23209,-1.2041954 0.69606,-1.6682274 z m 5.04753,5.2030974 c -1.03958,0.629787 -2.16595,0.944871 -3.37922,0.944871 -1.21324,0 -2.3396,-0.314893 -3.37914,-0.944871 -1.03953,-0.629977 -1.9041,-1.476404 -2.59365,-2.53936 0.78808,-1.223645 1.77577,-2.1388238 2.96308,-2.7453206 -0.31625,0.539132 -0.47444,1.1224756 -0.47444,1.7497836 0,0.959281 0.34096,1.779556 1.0227,2.461453 0.68173,0.681897 1.50231,1.022696 2.46145,1.022696 0.95923,0 1.77956,-0.340989 2.46145,-1.022696 0.68191,-0.681706 1.02273,-1.502172 1.02273,-2.461453 0,-0.627308 -0.15821,-1.2107332 -0.4745,-1.7497836 1.18726,0.6064968 2.175,1.5217586 2.96305,2.7453206 -0.68944,1.062956 -1.55393,1.909383 -2.59351,2.53936 z" />
</g>

<g id="flip">
    <path
        d="m 394.9568,5.4721694 c -0.10017,-0.022211 -0.20208,0.030051 -0.24432,0.1236878 l -5.66177,12.6300918 c -0.0302,0.0675 -0.0242,0.145463 0.0159,0.207525 0.0401,0.06185 0.10888,0.0993 0.1827,0.0993 l 5.66176,0 c 0.12021,0 0.21776,-0.09734 0.21776,-0.217761 l 0,-12.6300909 c 2.2e-4,-0.102565 -0.0714,-0.1911934 -0.17203,-0.2127517 z" />
    <path
        d="m 397.04312,5.4723114 c 0.10017,-0.022211 0.20208,0.030051 0.24433,0.1236879 l 5.66177,12.6300907 c 0.0302,0.0675 0.0242,0.145464 -0.0159,0.207526 -0.0401,0.06184 -0.10888,0.0993 -0.1827,0.0993 l -5.66177,0 c -0.1202,0 -0.21776,-0.09734 -0.21776,-0.21776 l 0,-12.6300908 c -2.2e-4,-0.102565 0.0714,-0.1911934 0.17203,-0.2127518 z" />
</g>

<g id="scroll">
    <path
        d="m 415.57502,11.166598 8.84986,0 c 0.11312,0 0.21582,-0.06465 0.26474,-0.16646 0.049,-0.101521 0.0354,-0.222436 -0.0348,-0.310588 l -4.42507,-5.5472455 c -0.0558,-0.069934 -0.14031,-0.1106305 -0.22964,-0.1106305 -0.0893,0 -0.17395,0.040697 -0.22963,0.1106305 l -4.42523,5.5472455 c -0.0704,0.0883 -0.084,0.209067 -0.035,0.310588 0.049,0.101816 0.15163,0.16646 0.26475,0.16646 z" />
    <path
        d="m 424.42472,12.833402 -8.8497,0 c -0.11298,0 -0.21582,0.0645 -0.26475,0.16646 -0.049,0.101521 -0.0354,0.222436 0.035,0.31044 l 4.42507,5.547393 c 0.0558,0.06994 0.14031,0.110631 0.22964,0.110631 0.0893,0 0.17395,-0.0407 0.22963,-0.110631 l 4.42479,-5.547393 c 0.0704,-0.0883 0.0839,-0.208919 0.0348,-0.31044 -0.0486,-0.101963 -0.15133,-0.16646 -0.26446,-0.16646 z" />
</g>
</g>
</defs>

<use fill="#524847" xlink:href="#main" y="0" />
<use fill="#c0c0c0" xlink:href="#main" y="30" />
<use fill="#fcfcfc" xlink:href="#main" y="60" />
</svg>
