<?xml version="1.0" encoding="UTF-8" standalone="no"?>
<svg
xmlns:xlink="http://www.w3.org/1999/xlink"
xmlns="http://www.w3.org/2000/svg"
version="1.1"
width="105"
height="79"
viewBox="0 0 105 79">
<defs>
<linearGradient id="linear-gradient" y1="220.67" x2="759.86" y2="220.67" gradientUnits="userSpaceOnUse">
    <stop offset="0" stop-color="#ed3b6e" />
    <stop offset="1" stop-color="#f3702f" />
</linearGradient>
<g id="main">
    <g id="inbox">
        <path d="M 25.834424,11.147529 21.879444,6.31374 C 21.46045,5.8015817 20.840625,5.5078318 20.178857,5.5078318 H 6.8211423 c -0.6617679,0 -1.281592,0.2937499 -1.7005863,0.8058593 L 1.1655754,11.147529 c -0.10703,0.130811 -0.16557576,0.297999 -0.16557576,0.463819 v 7.8125 c 0,1.211573 0.98569276,2.197266 2.19726576,2.197266 H 23.802736 C 25.014307,21.621114 26,20.635421 26,19.423848 v -7.8125 c 0,-0.160645 -0.05605,-0.329981 -0.165576,-0.463819 z M 6.2542483,7.2412792 C 6.3938971,7.0705761 6.6005364,6.9726757 6.8210943,6.9726757 H 20.178809 c 0.220606,0 0.427198,0.0979 0.566846,0.2686522 l 2.976368,3.6375981 h -5.339209 c -0.367091,0 -0.677491,0.271728 -0.725977,0.635644 l -0.403565,3.026465 H 9.7467294 L 9.3431633,11.51457 C 9.2946772,11.150654 8.984278,10.878926 8.6171876,10.878926 H 3.277979 Z M 24.535158,19.423848 c 0,0.403858 -0.328566,0.732421 -0.732422,0.732421 H 3.1972654 c -0.4038576,0 -0.7324219,-0.328563 -0.7324219,-0.732421 V 12.34377 h 5.5110848 l 0.4035643,3.026465 c 0.048486,0.363916 0.3588872,0.635644 0.7259757,0.635644 h 8.7890627 c 0.367091,0 0.677492,-0.271728 0.725978,-0.635644 l 0.403564,-3.026465 h 5.511085 z"/>
        <path d="m 15.941407,17.470723 h -4.882812 c -0.404493,0 -0.732422,0.32793 -0.732422,0.732422 0,0.404492 0.327929,0.732422 0.732422,0.732422 h 4.882812 c 0.404492,0 0.732422,-0.32793 0.732422,-0.732422 0,-0.404492 -0.32793,-0.732422 -0.732422,-0.732422 z"/>
    </g>

    <g id="achievements">
        <path d="M 42.047162,6.0753926 40.74433,5.8792012 40.155121,4.7007833 C 40.03105,4.4526387 39.777484,4.2959005 39.500042,4.2959005 c -0.27744,0 -0.531005,0.1567382 -0.655126,0.4048828 l -0.589209,1.1784179 -1.302784,0.1961914 c -0.274316,0.041308 -0.501756,0.234082 -0.587498,0.4979491 -0.08594,0.2643556 -0.0146,0.5539064 0.182617,0.7481445 l 0.938672,0.9245117 -0.215967,1.2996581 c -0.04551,0.2736817 0.06757,0.549561 0.291991,0.712598 0.224023,0.162793 0.52129,0.185547 0.767969,0.05752 l 1.169335,-0.6070311 1.169289,0.6070311 c 0.246288,0.127832 0.543554,0.105518 0.767969,-0.05752 0.224463,-0.163037 0.3375,-0.4389163 0.291993,-0.712598 L 41.513324,8.2459979 42.451995,7.3214862 C 42.649653,7.1268084 42.720355,6.8371601 42.634613,6.5733417 42.548872,6.3095235 42.321478,6.1167012 42.047162,6.0753926 Z m -1.832617,1.3937499 c -0.348631,0.3433593 -0.170313,0.7734374 -0.170361,0.8715821 l -0.20669,-0.1072755 c -0.211524,-0.1098145 -0.463329,-0.1098145 -0.674901,0 l -0.206689,0.1072755 c 0.01889,-0.1721193 0.09043,-0.3371582 0.0122,-0.5766114 -0.07794,-0.2400392 -0.233155,-0.3310547 -0.348536,-0.4583984 0.119629,-0.018017 0.239454,-0.036084 0.234473,-0.035351 0.482127,-0.075439 0.581297,-0.5130371 0.645947,-0.6043455 l 0.10415,0.2083007 c 0.218848,0.4376464 0.682715,0.4008788 0.776269,0.4313965 z"/>
        <path d="m 51.267621,2.4648459 h -3.720215 c 0.006,-0.2422848 0.0092,-0.4863281 0.0092,-0.7324219 5e-5,-0.4044925 -0.327879,-0.7324218 -0.732372,-0.7324218 h -14.64841 c -0.404493,0 -0.732422,0.3279293 -0.732422,0.7324218 0,0.2460938 0.0033,0.4901371 0.0092,0.7324219 h -3.72018 C 27.327929,2.4648459 27,2.7927753 27,3.1972677 v 1.8551758 c 0,4.0979977 3.252636,7.4551755 7.327294,7.6566405 0.849171,1.158008 1.849609,1.996191 2.962842,2.474854 -0.09931,1.98081 -0.767285,3.585058 -1.334718,4.611473 -0.675145,1.221338 -1.362206,1.921192 -1.367869,1.926904 v 5e-5 c -0.134083,0.134033 -0.214503,0.322462 -0.214503,0.517871 v 2.294922 h -0.732422 c -0.404493,0 -0.732422,0.327929 -0.732422,0.73242 0,0.404493 0.327929,0.732422 0.732422,0.732422 h 11.718749 c 0.404493,0 0.732422,-0.327929 0.732422,-0.732422 0,-0.404491 -0.327929,-0.73242 -0.732422,-0.73242 h -0.732421 v -2.294922 c 0,-0.185889 -0.07436,-0.377735 -0.214502,-0.517871 0,0 0,0 0,-5e-5 -0.02608,-0.02608 -2.505714,-2.551366 -2.702783,-6.538329 1.113379,-0.478662 2.113868,-1.316845 2.963037,-2.474951 4.074658,-0.201416 7.327295,-3.5585938 7.327295,-7.6565915 V 3.1972677 c 0,-0.4044924 -0.32793,-0.7324218 -0.732421,-0.7324218 z M 28.464888,5.0524435 V 3.9296896 h 3.061572 c 0.188817,2.447119 0.725829,5.0022459 1.824754,7.1750484 -2.792625,-0.619141 -4.886326,-3.0975095 -4.886326,-6.0522945 z m 7.373046,19.4827145 v -1.5625 h 7.324218 v 1.5625 z m 4.903613,-10.551025 c -0.303272,0.09712 -0.509082,0.379101 -0.509082,0.697558 0,3.105029 1.222852,5.478467 2.144384,6.826123 h -5.753612 c 0.921533,-1.347656 2.144384,-3.721094 2.144384,-6.826123 0,-0.318457 -0.205761,-0.600439 -0.509081,-0.697558 -1.736769,-0.556055 -2.95835,-2.17046 -3.743262,-3.832227 -0.97246,-2.0588867 -1.520851,-4.70415 -1.597657,-7.6870601 h 13.164893 c -0.07681,2.9829101 -0.625244,5.6281734 -1.597754,7.6870601 -0.777099,1.645215 -1.996191,3.272852 -3.743213,3.832227 z m 9.793652,-8.9316895 c 0,2.954785 -2.093701,5.4331535 -4.886376,6.0522945 1.098925,-2.1728025 1.635985,-4.7278806 1.824755,-7.1750964 h 3.061621 z"/>
    </g>

    <g id="chat">
        <path d="m 77.909996,20.624087 -1.452002,-4.225738 c 0.699903,-1.430764 1.069776,-3.021976 1.072267,-4.623004 0.0043,-2.7838412 -1.072756,-5.416022 -3.032817,-7.4116301 -1.96045,-1.9959981 -4.572857,-3.119584 -7.356064,-3.1636761 -2.88599,-0.045605 -5.598688,1.0521495 -7.638094,3.0915081 -1.966507,1.9664575 -3.057231,4.5588924 -3.091753,7.3292081 -1.938185,1.459279 -3.082182,3.734429 -3.078421,6.164559 0.0018,1.137208 0.257763,2.26763 0.742774,3.289847 l -1.000147,2.91055 c -0.171925,0.500343 -0.04634,1.043605 0.327783,1.417727 0.263282,0.263331 0.610401,0.403517 0.967384,0.403517 0.150195,0 0.302148,-0.02481 0.450341,-0.07573 l 2.910601,-1.000148 c 1.022217,0.48501 2.152639,0.740968 3.289848,0.742775 0.0041,0 0.008,0 0.0121,0 2.466313,-9.8e-5 4.758797,-1.173586 6.212752,-3.159282 1.513041,-0.03984 3.010063,-0.406104 4.363433,-1.068166 l 4.225787,1.452053 c 0.176074,0.0605 0.356641,0.08999 0.535108,0.08999 0.424219,0 0.83672,-0.166602 1.14966,-0.479591 0.444532,-0.44458 0.593751,-1.090139 0.389453,-1.684768 z m -16.876288,3.361674 c -0.0031,0 -0.0066,0 -0.0097,0 -1.006544,-0.0015 -2.006105,-0.24966 -2.890432,-0.71753 -0.181837,-0.09615 -0.395314,-0.112794 -0.589748,-0.04599 l -2.984526,1.025537 1.025541,-2.984475 c 0.06679,-0.194484 0.05019,-0.40796 -0.04599,-0.589747 -0.467873,-0.884376 -0.716017,-1.88389 -0.71758,-2.890482 -0.0025,-1.619095 0.627345,-3.153715 1.728764,-4.302838 0.359765,2.193167 1.405029,4.214165 3.025248,5.805574 1.608253,1.579639 3.629838,2.585403 5.811089,2.914214 -1.151759,1.135204 -2.704299,1.785743 -4.352641,1.785743 z m 15.434491,-2.729154 c -0.04233,0.04233 -0.09253,0.05386 -0.148976,0.03443 l -4.523832,-1.554493 c -0.07856,-0.027 -0.160304,-0.04038 -0.24175,-0.04038 -0.120068,0 -0.239697,0.02905 -0.347949,0.08638 -1.291652,0.683302 -2.751223,1.045703 -4.22105,1.047949 -0.0049,0 -0.0092,0 -0.01406,0 -4.924958,0 -8.99298,-4.000688 -9.071007,-8.924473 -0.03931,-2.47974 0.903956,-4.8102603 2.655959,-6.5622645 1.752006,-1.7520046 4.082916,-2.6949259 6.562313,-2.6558627 4.928522,0.078174 8.931945,4.153716 8.924328,9.0851182 -0.0023,1.469826 -0.364649,2.929447 -1.047902,4.221002 -0.09619,0.181787 -0.112793,0.395264 -0.04599,0.589746 l 1.554445,4.523833 c 0.01938,0.05664 0.0078,0.106789 -0.03452,0.149025 z"/>
        <path d="m 71.402958,7.8149401 h -8.865245 c -0.410938,0 -0.744044,0.3331546 -0.744044,0.7440437 0,0.4109381 0.333155,0.7440439 0.744044,0.7440439 h 8.865245 c 0.410937,0 0.744044,-0.3331547 0.744044,-0.7440439 0,-0.4108891 -0.333107,-0.7440437 -0.744044,-0.7440437 z"/>
        <path d="m 71.402958,10.875051 h -8.865245 c -0.410938,0 -0.744044,0.333155 -0.744044,0.744044 0,0.410889 0.333155,0.744044 0.744044,0.744044 h 8.865245 c 0.410937,0 0.744044,-0.333155 0.744044,-0.744044 0,-0.410889 -0.333107,-0.744044 -0.744044,-0.744044 z"/>
        <path d="m 67.990453,13.935064 h -5.452789 c -0.410939,0 -0.744043,0.333155 -0.744043,0.744045 0,0.410937 0.333154,0.744044 0.744043,0.744044 h 5.452742 c 0.410937,0 0.744044,-0.333155 0.744044,-0.744044 0,-0.41089 -0.333058,-0.744045 -0.743997,-0.744045 z"/>
    </g>

    <g id="setup">
        <path d="m 92.284398,25.999977 h -1.568995 c -1.268993,0 -2.301465,-1.03242 -2.301465,-2.301415 V 23.167751 C 87.874436,22.995387 87.350266,22.77781 86.846701,22.517215 l -0.376172,0.376172 c -0.911084,0.912207 -2.370507,0.885448 -3.255127,-3.7e-4 L 82.106467,21.78413 c -0.886181,-0.885205 -0.911669,-2.34414 3.69e-4,-3.255126 l 0.375879,-0.375879 C 82.222118,17.64956 82.004589,17.125488 81.832178,16.585888 H 81.301416 C 80.03247,16.585888 79,15.553466 79,14.284472 v -1.569043 c 0,-1.268995 1.03247,-2.301416 2.301465,-2.301416 h 0.53076 C 82.00464,9.8744621 82.222167,9.350341 82.482764,8.8467764 L 82.106592,8.4706533 c -0.911427,-0.9104491 -0.886281,-2.3695312 3.69e-4,-3.255127 l 1.109033,-1.108984 c 0.88667,-0.8878919 2.345753,-0.9100597 3.25508,3.691e-4 l 0.375829,0.3758311 c 0.503564,-0.260547 1.027734,-0.4781256 1.567237,-0.650537 V 3.3014438 c 0,-1.2689948 1.032423,-2.3014168 2.301465,-2.3014168 h 1.568994 c 1.268994,0 2.301417,1.032422 2.301417,2.3014168 v 0.5308096 c 0.539501,0.1723635 1.06367,0.3899421 1.567235,0.6505378 l 0.376172,-0.3761714 c 0.911084,-0.9122078 2.370508,-0.8854503 3.255128,3.692e-4 l 1.108939,1.1088867 c 0.88618,0.8852051 0.91167,2.3441406 -3.7e-4,3.255127 l -0.37588,0.375879 c 0.26059,0.5035645 0.47812,1.0276368 0.65053,1.5672363 h 0.53077 c 1.26899,0 2.30146,1.032422 2.30146,2.301416 v 1.569044 c 0,1.268993 -1.03247,2.301416 -2.30146,2.301416 h -0.53077 c -0.17241,0.53955 -0.38994,1.063671 -0.65053,1.567235 l 0.37617,0.376172 c 0.91143,0.91045 0.88628,2.369532 -3.7e-4,3.255128 l -1.109031,1.108984 c -0.88667,0.887891 -2.345754,0.910059 -3.255079,-3.68e-4 L 96.1531,22.517314 c -0.503567,0.260442 -1.027736,0.47802 -1.567237,0.650432 v 0.530811 c 0,1.268898 -1.032423,2.301317 -2.301465,2.301317 z m -5.192823,-5.020995 c 0.69956,0.413722 1.45249,0.726269 2.237841,0.928955 0.323437,0.08345 0.549416,0.375146 0.549416,0.70918 v 1.081445 c 0,0.46128 0.375341,0.836574 0.83662,0.836574 h 1.568993 c 0.46128,0 0.836621,-0.375294 0.836621,-0.836574 v -1.081445 c 0,-0.334034 0.225978,-0.625733 0.549416,-0.70918 0.78535,-0.202686 1.538281,-0.515233 2.23784,-0.928955 0.287842,-0.170216 0.654298,-0.123925 0.890773,0.11255 l 0.766015,0.766063 c 0.330273,0.330664 0.860645,0.322998 1.182814,3.69e-4 l 1.109715,-1.109668 c 0.321391,-0.320996 0.332131,-0.851465 3.69e-4,-1.182861 L 99.09165,18.799078 c -0.236425,-0.236427 -0.282714,-0.60293 -0.112548,-0.890723 0.41372,-0.699512 0.726221,-1.452441 0.928906,-2.237842 0.08349,-0.323438 0.375192,-0.549365 0.709182,-0.549365 h 1.0814 c 0.46127,0 0.83662,-0.375293 0.83662,-0.836572 v -1.569043 c 0,-0.46128 -0.37535,-0.836573 -0.83662,-0.836573 h -1.0814 c -0.33403,0 -0.625686,-0.225977 -0.709182,-0.549365 C 99.705323,10.544194 99.392773,9.7912648 98.979102,9.091753 98.808936,8.8039601 98.855225,8.437456 99.09165,8.2010303 L 99.857715,7.4349658 C 100.18887,7.104204 100.18023,6.5739305 99.858084,6.2521044 L 98.748464,5.1424852 C 98.426833,4.8204149 97.896365,4.8109909 97.565603,5.14219 L 96.799295,5.9085474 C 96.562869,6.145022 96.196267,6.1913111 95.908523,6.0210963 95.208962,5.6073755 94.456033,5.2948268 93.670681,5.0921411 93.347243,5.0086938 93.121268,4.7169946 93.121268,4.3829615 V 3.3013922 c 0,-0.4612795 -0.375342,-0.836573 -0.836622,-0.836573 h -1.568995 c -0.46128,0 -0.83662,0.3752935 -0.83662,0.836573 v 1.0814439 c 0,0.3340332 -0.225977,0.6257324 -0.549414,0.7091798 -0.785352,0.2026854 -1.538281,0.5152343 -2.237843,0.9289551 -0.287889,0.170166 -0.654345,0.123877 -0.89077,-0.1125489 L 85.434987,5.1423576 C 85.104713,4.8116936 84.574293,4.8193597 84.252176,5.1420069 l -1.109718,1.109668 c -0.321387,0.3209963 -0.332128,0.8514162 -3.7e-4,1.1828615 l 0.766359,0.7663575 c 0.236426,0.2364258 0.282715,0.6029297 0.112548,0.8907227 -0.41372,0.6995116 -0.726219,1.4524414 -0.928906,2.2378424 -0.08349,0.323437 -0.375195,0.549365 -0.709179,0.549365 h -1.081445 c -0.46128,4.9e-5 -0.836622,0.375342 -0.836622,0.83662 v 1.569044 c 0,0.461279 0.375342,0.836572 0.836622,0.836572 h 1.081396 c 0.334033,0 0.625684,0.225977 0.709181,0.549365 0.202684,0.785401 0.515233,1.538331 0.928905,2.237843 0.170165,0.287793 0.123877,0.654296 -0.11255,0.890723 l -0.766063,0.766063 c -0.331153,0.330763 -0.322511,0.861035 -3.69e-4,1.182862 l 1.10962,1.10962 c 0.321631,0.32207 0.852098,0.331493 1.182861,3.69e-4 l 0.766308,-0.766358 c 0.174218,-0.174171 0.536669,-0.321973 0.890821,-0.1125 z"/>
        <path d="m 91.499924,18.939431 c -2.999366,0 -5.439453,-2.440137 -5.439453,-5.439453 0,-2.999317 2.440087,-5.4394535 5.439453,-5.4394535 2.999366,0 5.439455,2.4401365 5.439455,5.4394535 0,2.999316 -2.440089,5.439453 -5.439455,5.439453 z m 0,-9.4140628 c -2.191651,0 -3.974609,1.7830078 -3.974609,3.9746098 0,2.191602 1.783007,3.97461 3.974609,3.97461 2.191602,0 3.974611,-1.783008 3.974611,-3.97461 0,-2.191602 -1.78296,-3.9746098 -3.974611,-3.9746098 z"/>
    </g>
</g>
</defs>

<use fill="#524847" xlink:href="#main" y="1" />
<use fill="#fff" xlink:href="#main" y="27" />
<use fill="url(#linear-gradient)" xlink:href="#main" y="53" />
</svg>
