<?xml version="1.0" encoding="UTF-8" standalone="no"?>
<svg
xmlns:xlink="http://www.w3.org/1999/xlink"
xmlns="http://www.w3.org/2000/svg"
version="1.1"
width="100"
height="75"
viewBox="0 0 100 75">
<defs>
<linearGradient id="linear-gradient" y1="220.67" x2="759.86" y2="220.67" gradientUnits="userSpaceOnUse">
    <stop offset="0" stop-color="#ed3b6e" />
    <stop offset="1" stop-color="#f3702f" />
</linearGradient>
<g id="main">
    <g id="inbox">
        <path d="M 24.475881,9.9374851 20.578,5.1734827 C 20.165055,4.6687186 19.554179,4.3792096 18.901965,4.3792096 H 5.7370999 c -0.6522138,0 -1.2630893,0.289509 -1.6760344,0.7942249 L 0.16318418,9.9374851 C 0.05769938,10.066407 -1.1442791e-6,10.231181 -1.1442791e-6,10.394607 v 7.699709 c 0,1.194081 0.9714619742791,2.165543 2.1655431442791,2.165543 h 20.307983 c 1.194079,0 2.165541,-0.971462 2.165541,-2.165543 v -7.699709 c 0,-0.158325 -0.05524,-0.325216 -0.163185,-0.4571219 z M 5.1783903,6.0876307 C 5.3160229,5.9193921 5.5196789,5.8229051 5.7370526,5.8229051 H 18.901918 c 0.217421,0 0.42103,0.096487 0.558662,0.2647736 l 2.933397,3.5850807 h -5.262125 c -0.361791,0 -0.66771,0.2678057 -0.715496,0.6264676 l -0.397738,2.982771 H 8.6204494 L 8.2227097,10.299227 C 8.1749236,9.9405651 7.8690057,9.6727594 7.5072151,9.6727594 H 2.2450903 Z M 23.195373,18.094316 c 0,0.398027 -0.323823,0.721847 -0.721848,0.721847 H 2.165542 c -0.398027,0 -0.7218477,-0.32382 -0.7218477,-0.721847 v -6.977861 h 5.4315196 l 0.3977379,2.982771 c 0.047786,0.358662 0.3537058,0.626467 0.7154945,0.626467 h 8.6621727 c 0.361791,0 0.66771,-0.267805 0.715496,-0.626467 l 0.397738,-2.982771 h 5.43152 z"/>
        <path d="M 14.725692,16.169389 H 9.9133748 c -0.3986527,0 -0.7218477,0.323195 -0.7218477,0.721848 0,0.398652 0.323195,0.721847 0.7218477,0.721847 h 4.8123172 c 0.398653,0 0.721848,-0.323195 0.721848,-0.721847 0,-0.398653 -0.323195,-0.721848 -0.721848,-0.721848 z"/>
    </g>
    <g id="achievements">
        <path d="M 39.95027,5.0021161 38.666248,4.8087572 38.085545,3.6473523 C 37.963265,3.4027902 37.71336,3.2483149 37.439924,3.2483149 c -0.273435,0 -0.523339,0.1544753 -0.645668,0.3990374 l -0.580703,1.1614049 -1.283975,0.1933589 c -0.270356,0.040712 -0.494512,0.2307025 -0.579016,0.4907601 -0.0847,0.260539 -0.01439,0.5459095 0.17998,0.7373434 l 0.92512,0.9111643 -0.212849,1.2808947 c -0.04485,0.2697305 0.0666,0.5416265 0.287776,0.7023098 0.220789,0.1604426 0.513764,0.182868 0.756882,0.056689 L 37.439924,8.58301 38.592331,9.1812774 C 38.835064,9.307264 39.128038,9.2852716 39.349213,9.1245884 39.570435,8.9639051 39.68184,8.6920091 39.63699,8.4222786 L 39.424139,7.1413839 40.349259,6.2302196 C 40.544063,6.0383524 40.613744,5.7528858 40.52924,5.4928762 40.444737,5.2328668 40.220626,5.0428283 39.95027,5.0021161 Z m -1.806159,1.373628 C 37.800513,6.7141463 37.976257,7.1380153 37.97621,7.234743 L 37.772504,7.1290163 c -0.20847,-0.1082291 -0.45664,-0.1082291 -0.665158,0 L 36.903641,7.234743 c 0.01862,-0.1696344 0.08912,-0.3322906 0.01202,-0.5682867 -0.07681,-0.2365737 -0.229789,-0.3262752 -0.343504,-0.4517804 0.117902,-0.017757 0.235997,-0.035563 0.231088,-0.034841 0.475167,-0.07435 0.572905,-0.5056303 0.636621,-0.5956205 l 0.102647,0.2052934 c 0.215688,0.431328 0.672858,0.3950913 0.765062,0.4251684 z"/>
        <path d="m 49.037612,1.4436956 h -3.666506 c 0.0059,-0.2387868 0.0091,-0.47930687 0.0091,-0.7218477 C 45.380255,0.32319516 45.05706,1.7696721e-7 44.658407,1.7696721e-7 h -14.43696 c -0.398653,0 -0.721848,0.32319498303279 -0.721848,0.72184772303279 0,0.24254083 0.0033,0.4830609 0.0091,0.7218477 h -3.666504 c -0.398653,0 -0.721848,0.323195 -0.721848,0.7218477 v 1.8283922 c 0,4.0388341 3.205677,7.3475435 7.221509,7.5460995 0.836911,1.14129 1.822905,1.967372 2.920066,2.439124 -0.09788,1.952213 -0.756207,3.5333 -1.315448,4.544897 -0.665398,1.203705 -1.342539,1.893455 -1.348121,1.899085 v 4.9e-5 c -0.132147,0.132098 -0.211406,0.317806 -0.211406,0.510394 v 2.26179 h -0.721848 c -0.398653,0 -0.721848,0.323195 -0.721848,0.721846 0,0.398653 0.323195,0.721848 0.721848,0.721848 h 11.549563 c 0.398653,0 0.721848,-0.323195 0.721848,-0.721848 0,-0.398651 -0.323195,-0.721846 -0.721848,-0.721846 h -0.721847 v -2.26179 c 0,-0.183205 -0.07329,-0.372281 -0.211405,-0.510394 0,0 0,0 0,-4.9e-5 -0.0257,-0.0257 -2.469538,-2.514532 -2.663762,-6.443934 1.097305,-0.471752 2.083349,-1.297834 2.920259,-2.43922 4.015831,-0.198508 7.221509,-3.5072174 7.221509,-7.5460515 V 2.1655433 c 0,-0.3986527 -0.323196,-0.7218477 -0.721847,-0.7218477 z M 26.564086,3.9939355 V 2.8873911 h 3.017372 c 0.186091,2.4117894 0.71535,4.9300274 1.79841,7.0714607 C 28.62756,9.3486499 26.564086,6.9060617 26.564086,3.9939355 Z m 7.2666,19.2014385 v -1.539942 h 7.218477 v 1.539942 z m 4.832819,-10.398698 c -0.298894,0.09572 -0.501733,0.373628 -0.501733,0.687488 0,3.060201 1.205198,5.399373 2.113426,6.727572 h -5.670546 c 0.908228,-1.328199 2.113425,-3.667371 2.113425,-6.727572 0,-0.31386 -0.202791,-0.591771 -0.501732,-0.687488 -1.711694,-0.548027 -2.915639,-2.139124 -3.689219,-3.7769 C 31.568705,6.9906139 31.028232,4.3835408 30.952534,1.4436956 h 12.974829 c -0.0757,2.9398452 -0.616217,5.5469183 -1.574687,7.5760804 -0.76588,1.621463 -1.967371,3.225601 -3.689171,3.7769 z m 9.652259,-8.8027405 c 0,2.9121262 -2.063474,5.3547144 -4.815831,5.9649163 1.08306,-2.1414333 1.612366,-4.6596232 1.798411,-7.071508 h 3.01742 z"/>
    </g>
    <g id="chat">
        <path d="m 74.790934,19.337987 -1.431038,-4.164724 c 0.689798,-1.410106 1.05433,-2.978344 1.056785,-4.556255 C 74.420919,7.8733611 73.359414,5.2791849 71.427654,3.3123904 69.495509,1.3452115 66.920822,0.23784843 64.1778,0.19439297 61.333479,0.14944607 58.659948,1.231351 56.649988,3.2412644 54.711875,5.1793292 53.636899,7.7343333 53.602876,10.46465 c -1.910201,1.438209 -3.03768,3.680509 -3.033974,6.075552 0.0018,1.120788 0.254042,2.234889 0.73205,3.242347 l -0.985707,2.868526 c -0.169442,0.493119 -0.04567,1.028537 0.323051,1.397257 0.25948,0.259529 0.601587,0.397691 0.953416,0.397691 0.148027,0 0.297786,-0.02445 0.443839,-0.07464 l 2.868576,-0.985707 c 1.007458,0.478007 2.121558,0.730269 3.242348,0.73205 0.004,0 0.0079,0 0.01193,0 2.430703,-9.6e-5 4.690087,-1.156641 6.123049,-3.113666 1.491195,-0.03927 2.966603,-0.400241 4.300432,-1.052744 l 4.164773,1.431088 c 0.173532,0.05963 0.351492,0.08869 0.527382,0.08869 0.418094,0 0.824639,-0.164196 1.133061,-0.472666 0.438113,-0.438161 0.585178,-1.074399 0.38383,-1.660442 z m -16.632621,3.313137 c -0.0031,0 -0.0065,0 -0.0096,0 -0.992011,-0.0015 -1.97714,-0.246055 -2.848699,-0.70717 -0.179211,-0.09476 -0.389606,-0.111165 -0.581232,-0.04533 l -2.941434,1.01073 1.010733,-2.941384 c 0.06583,-0.191676 0.04947,-0.402069 -0.04533,-0.581232 -0.461117,-0.871607 -0.705678,-1.856689 -0.707219,-2.848748 -0.0025,-1.595717 0.618287,-3.10818 1.703803,-4.240711 0.354571,2.161501 1.384743,4.153319 2.981568,5.72175 1.585033,1.556832 3.577429,2.548074 5.727186,2.872137 -1.135129,1.118814 -2.665253,1.75996 -4.289795,1.75996 z m 15.211641,-2.689749 c -0.04172,0.04172 -0.09119,0.05308 -0.146825,0.03393 l -4.458515,-1.532049 c -0.07743,-0.02661 -0.157989,-0.0398 -0.238259,-0.0398 -0.118335,0 -0.236237,0.02863 -0.342926,0.08513 -1.273002,0.673436 -2.711499,1.030605 -4.160104,1.032818 -0.0048,0 -0.0091,0 -0.01386,0 -4.853849,0 -8.863135,-3.942924 -8.940035,-8.795617 -0.03874,-2.4439361 0.890904,-4.7408073 2.617611,-6.4675152 1.726709,-1.7267083 4.023964,-2.6560153 6.467563,-2.6175161 4.857361,0.077045 8.802981,4.0937427 8.795474,8.9539433 -0.0023,1.448604 -0.359384,2.88715 -1.032772,4.160057 -0.0948,0.179162 -0.111164,0.389557 -0.04533,0.581231 l 1.532001,4.458516 c 0.0191,0.05582 0.0077,0.105247 -0.03402,0.146873 z"/>
        <path d="m 68.377847,6.7137851 h -8.737244 c -0.405005,0 -0.733301,0.3283444 -0.733301,0.7333009 0,0.4050048 0.328344,0.733301 0.733301,0.733301 h 8.737244 c 0.405004,0 0.733301,-0.3283444 0.733301,-0.733301 0,-0.4049565 -0.328297,-0.7333009 -0.733301,-0.7333009 z"/>
        <path d="m 68.377847,9.7297128 h -8.737244 c -0.405005,0 -0.733301,0.3283442 -0.733301,0.7333012 0,0.404956 0.328344,0.733301 0.733301,0.733301 h 8.737244 c 0.405004,0 0.733301,-0.328345 0.733301,-0.733301 0,-0.404957 -0.328297,-0.7333012 -0.733301,-0.7333012 z"/>
        <path d="m 65.014614,12.745544 h -5.374059 c -0.405006,0 -0.733301,0.328345 -0.733301,0.733302 0,0.405004 0.328344,0.733301 0.733301,0.733301 h 5.374012 c 0.405004,0 0.733301,-0.328345 0.733301,-0.733301 0,-0.404957 -0.328249,-0.733302 -0.733254,-0.733302 z"/>
    </g>
    <g id="setup">
        <path d="m 88.453539,24.639044 h -1.546343 c -1.250672,0 -2.268238,-1.017515 -2.268238,-2.268189 v -0.523148 c -0.531713,-0.169875 -1.048315,-0.384311 -1.54461,-0.641144 l -0.370741,0.370741 c -0.89793,0.899038 -2.336283,0.872665 -3.208132,-3.64e-4 L 78.42255,20.484062 c -0.873387,-0.872425 -0.898507,-2.310297 3.64e-4,-3.208131 l 0.370452,-0.370452 c -0.256834,-0.496295 -0.471223,-1.012801 -0.641145,-1.54461 h -0.523099 c -1.250626,0 -2.26819,-1.017517 -2.26819,-2.26819 v -1.54639 c 0,-1.250674 1.017564,-2.2681902 2.268238,-2.2681902 h 0.523098 C 78.322193,8.7463377 78.53658,8.2297835 78.793415,7.7334891 L 78.422674,7.3627962 C 77.524405,6.4654915 77.549188,5.0274746 78.423037,4.1546645 l 1.093022,-1.0929733 c 0.873869,-0.8750731 2.311886,-0.8969209 3.208085,3.638e-4 l 0.370403,0.3704051 c 0.496294,-0.2567854 1.012896,-0.4712228 1.544611,-0.641145 V 2.2682162 c 0,-1.250674 1.017517,-2.268190559428 2.268238,-2.268190559428 h 1.546341 c 1.250674,0 2.268191,1.017516559428 2.268191,2.268190559428 v 0.5231461 c 0.531712,0.169875 1.048314,0.3843124 1.544609,0.6411458 l 0.370741,-0.3707405 c 0.89793,-0.899038 2.336284,-0.8726668 3.208132,3.638e-4 l 1.092926,1.0928774 c 0.873387,0.8724251 0.898508,2.3102975 -3.64e-4,3.2081317 L 96.56752,7.7335928 c 0.256833,0.4962944 0.471222,1.0128005 0.641144,1.5446097 h 0.523099 C 98.982437,9.2782025 100,10.295719 100,11.546392 v 1.546391 c 0,1.250673 -1.017563,2.26819 -2.268237,2.26819 h -0.523099 c -0.169922,0.531761 -0.384311,1.048315 -0.641144,1.544609 l 0.370741,0.370741 c 0.898267,0.897305 0.873483,2.335322 -3.64e-4,3.208132 l -1.093021,1.092974 c -0.873869,0.875072 -2.311887,0.89692 -3.208084,-3.63e-4 l -0.370404,-0.370405 c -0.496297,0.256682 -1.012899,0.471119 -1.544611,0.641041 v 0.523148 c 0,1.250578 -1.017517,2.268092 -2.268238,2.268092 z m -5.117852,-4.948506 c 0.68946,0.407749 1.43152,0.715784 2.205532,0.915544 0.318768,0.08224 0.541484,0.36973 0.541484,0.698941 v 1.065832 c 0,0.45462 0.369922,0.824496 0.824542,0.824496 h 1.546341 c 0.45462,0 0.824542,-0.369876 0.824542,-0.824496 v -1.065832 c 0,-0.329211 0.222716,-0.616699 0.541484,-0.698941 0.774012,-0.19976 1.516072,-0.507795 2.205532,-0.915544 0.283686,-0.167758 0.644851,-0.122136 0.877912,0.110925 l 0.754956,0.755003 c 0.325505,0.325891 0.84822,0.318335 1.165737,3.64e-4 l 1.093694,-1.093647 c 0.316747,-0.316362 0.327335,-0.839172 3.64e-4,-1.165784 l -0.755294,-0.755293 c -0.233012,-0.233013 -0.278632,-0.594225 -0.110923,-0.877863 0.407747,-0.689413 0.715736,-1.431472 0.915495,-2.205534 0.08229,-0.318768 0.369778,-0.541433 0.698941,-0.541433 h 1.065785 c 0.454619,0 0.824542,-0.369875 0.824542,-0.824495 v -1.54639 c 0,-0.45462 -0.369923,-0.824495 -0.824542,-0.824495 h -1.065785 c -0.32921,0 -0.61665,-0.222714 -0.698941,-0.541434 C 95.767326,9.406401 95.459289,8.6643416 95.05159,7.9749289 94.883881,7.6912909 94.929501,7.3300782 95.162513,7.0970658 l 0.755005,-0.7550046 c 0.326372,-0.3259865 0.317855,-0.8486043 3.64e-4,-1.165784 l -1.0936,-1.0935993 C 94.507294,3.7652574 93.984485,3.7559695 93.658498,4.0823869 L 92.903253,4.8376802 C 92.670241,5.0707407 92.308932,5.1163615 92.025342,4.9486042 91.335881,4.5408564 90.593822,4.2328201 89.819808,4.0330606 89.50104,3.9508181 89.278327,3.6633302 89.278327,3.3341196 V 2.2681653 c 0,-0.4546199 -0.369923,-0.8244951 -0.824543,-0.8244951 h -1.546343 c -0.45462,0 -0.824542,0.3698752 -0.824542,0.8244951 v 1.0658308 c 0,0.3292106 -0.222714,0.6166985 -0.541482,0.6989411 C 84.767404,4.2326964 84.025345,4.5407329 83.335883,4.9484807 83.05215,5.11619 82.690985,5.0705692 82.457973,4.8375567 L 81.703015,4.0825521 C 81.37751,3.756662 80.854748,3.7642174 80.537281,4.0822065 l -1.093697,1.0936474 c -0.316747,0.3163619 -0.327333,0.839124 -3.64e-4,1.1657841 l 0.755295,0.7552934 c 0.233012,0.2330124 0.278633,0.594225 0.110923,0.877863 -0.407747,0.6894126 -0.715735,1.431472 -0.915495,2.2055336 -0.08229,0.318768 -0.369779,0.541434 -0.698941,0.541434 H 77.62917 c -0.45462,4.8e-5 -0.824543,0.369923 -0.824543,0.824542 v 1.546391 c 0,0.454619 0.369923,0.824494 0.824543,0.824494 h 1.065784 c 0.32921,0 0.616651,0.222714 0.698942,0.541434 0.199758,0.774061 0.507795,1.516121 0.915494,2.205534 0.167709,0.283638 0.122089,0.64485 -0.110925,0.877863 l -0.755003,0.755004 c -0.326372,0.325987 -0.317855,0.848604 -3.63e-4,1.165784 l 1.0936,1.0936 c 0.316987,0.31742 0.839796,0.326707 1.165783,3.64e-4 l 0.755245,-0.755294 c 0.171703,-0.171656 0.528921,-0.317324 0.87796,-0.110876 z"/>
        <path d="m 87.680391,17.680433 c -2.956063,0 -5.360922,-2.404908 -5.360922,-5.360922 0,-2.9560147 2.404859,-5.3609225 5.360922,-5.3609225 2.956063,0 5.360924,2.4049078 5.360924,5.3609225 0,2.956014 -2.404861,5.360922 -5.360924,5.360922 z m 0,-9.2781492 c -2.160009,0 -3.917226,1.7572662 -3.917226,3.9172272 0,2.159961 1.757265,3.917227 3.917226,3.917227 2.159961,0 3.917228,-1.757266 3.917228,-3.917227 0,-2.159961 -1.757218,-3.9172272 -3.917228,-3.9172272 z" />
    </g>
</g>
</defs>

<use fill="#524847" xlink:href="#main" y="0" />
<use fill="#fff" xlink:href="#main" y="25.175" />
<use fill="url(#linear-gradient)" xlink:href="#main" y="50.35" />
</svg>
