<?xml version="1.0" encoding="UTF-8"?>
<!DOCTYPE svg PUBLIC "-//W3C//DTD SVG 1.1//EN" "http://www.w3.org/Graphics/SVG/1.1/DTD/svg11.dtd">
<svg
    version="1.1"
    xmlns="http://www.w3.org/2000/svg"
    xmlns:xlink="http://www.w3.org/1999/xlink"
    viewBox="0 0 240 145"
>
<style>
#black:target ~ use,
#black:target ~ g {
    fill: black !important;
}

#white:target ~ use,
#white:target ~ g {
    fill: white;
}

#clear:target ~ use,
#clear:target ~ g {
    fill: #ff9812;
    fill-opacity: 0.19;
}

#light:target ~ use,
#light:target ~ g {
    fill: #000000;
    fill-opacity: 0.05;
}

#orange:target ~ use,
#orange:target ~ g {
    fill: #ff9812;
}

use {
    -webkit-transition: 1s fill;
    -moz-transition: 1s fill;
    transition: 1s fill;
}
</style>

<defs>
<g id="pumpkins">
    <path d="m 93.040124,28.864594 c 0.01,0.616 0.426,1.15 1.021,1.309 1.984,0.529 4.265,1.188 6.204996,2.323 2.354,1.376 3.938,2.872 4.84,4.572 0.732,1.378 1.146,2.77 1.23,4.137 0.027,0.465 0.031,0.897 0.018,1.306 3.336,-0.938 6.771,-1.424 10.236,-1.424 2.592,0 5.162,0.275 7.691,0.801 -0.025,-0.063 -0.048,-0.128 -0.072,-0.19 -2.484,-6.32 -7.189,-11.385 -12.912,-13.897 -2.416,-1.061 -5.187,-1.647 -8.229,-1.745 -3.261996,-0.105 -6.423996,0.692 -9.046996,1.47 -0.588,0.177 -0.989,0.724 -0.981,1.338 z" />
    <path d="m 146.61412,49.662594 c -3.166,0 -6.24,0.478 -9.169,1.378 -6.112,-4.289 -13.239,-6.751 -20.854,-6.751 -7.615,0 -14.744,2.463 -20.854996,6.751 -2.93,-0.9 -6.002,-1.378 -9.168,-1.378 -20.159,0 -36.504,19.385 -36.504,43.298 0,23.911996 16.345,43.297996 36.504,43.297996 3.166,0 6.238,-0.479 9.168,-1.378 6.110996,4.289 13.239996,6.751 20.854996,6.751 7.615,0 14.742,-2.463 20.854,-6.751 2.929,0.899 6.003,1.378 9.169,1.378 20.159,0 36.504,-19.386 36.504,-43.297996 0,-23.914 -16.344,-43.298 -36.504,-43.298 z m -17.539,33.531 7.547,-15.226 c 0.145,-0.287 0.436,-0.464 0.754,-0.459 0.319,0.006 0.604,0.195 0.735,0.485 l 6.867,15.166 c 0.115,0.253 0.095,0.548 -0.055,0.783 -0.15,0.236 -0.408,0.379 -0.689,0.381 l -14.452,0.138 c -0.002,0 -0.007,0 -0.007,0 -0.004,0 -0.006,0 -0.006,0 -0.457,0 -0.826,-0.37 -0.826,-0.824 0.001,-0.163 0.048,-0.316 0.132,-0.444 z m -40.872996,-0.032 6.864,-15.166 c 0.134,-0.29 0.418,-0.479 0.738,-0.485 0.318,-0.005 0.611,0.172 0.754,0.459 l 7.546996,15.226 c 0.084,0.128 0.131,0.281 0.131,0.444 0,0.455 -0.368,0.824 -0.825,0.824 0,0 -0.002,0 -0.004,0 -0.005,0 -0.009,0 -0.011,0 l -14.452996,-0.138 c -0.276,-0.002 -0.536,-0.146 -0.688,-0.381 -0.147,-0.236 -0.168,-0.53 -0.053,-0.783 z m -11.467,39.222996 c -0.168,0.329 -0.516,0.54 -0.891,0.54 -0.125,0 -0.25,-0.022 -0.365,-0.069 -11.162,-4.518 -18.662,-16.992 -18.662,-31.041996 0,-14.052 7.5,-26.526 18.66,-31.042 0.119,-0.048 0.246,-0.073 0.371,-0.073 0.375,0 0.717,0.208 0.887,0.541 0.234,0.462 0.082,1.018 -0.356,1.293 -9.115,5.706 -14.777,16.925 -14.777,29.281 0,12.353996 5.662,23.572996 14.777,29.277996 0.438,0.278 0.593,0.832 0.356,1.293 z m 81.238996,-17.211 -7.436,5.44 c -1.429,1.045 -2.904,2.125 -4.367,3.176 l -5.896,4.239 c -0.28,0.201 -0.657,0.207 -0.944,0.013 l -6.654,-4.495 c -1.395,-0.941 -2.805,-1.912 -4.164,-2.849 -0.611,-0.42 -1.223,-0.84 -1.834,-1.259 l -0.02,-0.014 -2.938,2.048 -6.707,4.812 c -0.127,0.085 -0.27,0.129 -0.418,0.138 0,0 -0.002,0.001 -0.004,0.003 -0.002,-0.002 -0.004,-0.002 -0.004,-0.003 -0.183,0.009 -0.363,-0.042 -0.519,-0.151 l -5.998,-4.373 -3.549,-2.474 -0.02,0.014 c -0.609,0.419 -1.221,0.839 -1.83,1.259 -1.363,0.938 -2.771,1.907 -4.164,2.849 l -6.657996,4.495 c -0.287,0.194 -0.662,0.188 -0.94,-0.013 l -5.9,-4.239 c -1.461,-1.051 -2.936,-2.131 -4.365,-3.176 l -7.436,-5.44 c -0.318,-0.232 -0.426,-0.658 -0.26,-1.017 0.17,-0.357 0.565,-0.544 0.948,-0.448 l 15.84,4.002 13.516996,-11.532996 c 0.27,-0.229 0.658,-0.262 0.963,-0.078 l 10.375,6.282996 10.375,-6.282996 c 0.305,-0.185 0.693,-0.152 0.963,0.078 l 13.516,11.532996 15.841,-4.002 c 0.383,-0.096 0.778,0.091 0.948,0.448 0.166,0.359 0.055,0.785 -0.261,1.017 z" />
    <path d="m 183.84712,10.609594 c 1.502,2.275 2.258,4.317 2.318,6.243 0.045,1.559 -0.199,2.99 -0.732,4.253 -0.182,0.43 -0.365,0.818 -0.561,1.179 3.405,0.636 6.701,1.72 9.809,3.254 2.324,1.147 4.51,2.533 6.541,4.124 0.008,-0.066 0.014,-0.135 0.021,-0.202 0.569,-6.767 -1.406,-13.393 -5.425,-18.178 -1.696,-2.021 -3.92,-3.773 -6.604,-5.208 -2.879,-1.539 -6.066,-2.224 -8.764,-2.686 -0.605,-0.105 -1.209,0.207 -1.474,0.763 -0.264,0.555 -0.129,1.22 0.336,1.625 1.544,1.355 3.296,2.954 4.535,4.833 z" />
    <path d="m 217.80612,46.519594 c -2.84,-1.402 -5.805,-2.333 -8.83,-2.824 -3.582,-6.55 -8.885,-11.915 -15.711,-15.286 -6.828,-3.371 -14.312,-4.318 -21.69,-3.181 -2.228,-2.103 -4.771,-3.892 -7.609,-5.293 -13.943,-6.885 -30.955,-2.42 -42.865,9.821 1.574,1.565 2.99,3.324 4.205,5.247 6.537,-6.825 15.229,-10.653 23.799,-10.017 0.129,0.009 0.252,0.043 0.365,0.099 0.338,0.166 0.549,0.502 0.555,0.877 0.009,0.519 -0.377,0.948 -0.895,1 -8.133,0.823 -15.887,5.389 -21.543,12.398 0.125,0.289 0.25,0.575 0.365,0.867 0.034,0.088 0.069,0.177 0.102,0.265 l 0.633,1.705 c 3.283,1.066 6.461,2.562 9.465,4.477 2.771,-0.686 5.611,-1.034 8.466,-1.034 3.014,0 5.948,0.389 8.778,1.122 l 8.078,-6.627 c 0.244,-0.202 0.584,-0.243 0.873,-0.107 0.289,0.136 0.476,0.426 0.476,0.745 l 0.016,9.929 c 13.219,7.802 22.303,23.814 22.303,42.258 0,0.813 -0.016,1.622 -0.053,2.424 l 0.387,0.897 15.976,3.424 c 0.385,0.083 0.657,0.427996 0.651,0.822996 -0.01,0.395 -0.295,0.729 -0.686,0.796 l -9.074,1.587 c -1.742,0.306 -3.547,0.621 -5.322,0.915 l -3.063,0.509 c -1.496,7.054 -4.351,13.488 -8.22,18.9 0.564,0.325 1.142,0.639 1.734,0.931 18.078,8.926 41.314,-1.221 51.9,-22.662 10.586,-21.440996 4.512,-46.059996 -13.566,-54.984996 z m -16.295,29.313 c -0.01,0.28 -0.16,0.534 -0.398,0.679 -0.237,0.145 -0.532,0.158 -0.782,0.037 l -13.023,-6.276 c -0.004,-0.001 -0.004,-0.003 -0.006,-0.003 -0.002,-0.001 -0.004,-0.001 -0.006,-0.003 -0.408,-0.202 -0.576,-0.695 -0.375,-1.104 0.074,-0.146 0.184,-0.262 0.313,-0.341 l 13.511,-10.309 c 0.252,-0.194 0.596,-0.224 0.877,-0.078 0.282,0.146 0.459,0.442 0.444,0.76 l -0.555,16.638 z" />
    <path d="m 13.519124,20.025594 c 1.563,-0.441 3.375,-0.913 5.152,-0.925 2.154,-0.014 3.832,0.362 5.133,1.154 1.053,0.64 1.896,1.418 2.504,2.314 0.205,0.304 0.383,0.595 0.539,0.879 1.887,-1.983 4.023,-3.7 6.379,-5.097 1.76,-1.046 3.619,-1.897 5.547,-2.557 -0.041,-0.034 -0.084,-0.069 -0.127,-0.1 -4.233,-3.291 -9.475,-4.834 -14.373,-4.231 -2.071,0.254 -4.188,0.972 -6.295,2.134 -2.258,1.245 -4.084,3.06 -5.553,4.647 -0.33,0.357 -0.381,0.891 -0.127,1.305 0.254,0.415 0.754,0.61 1.221,0.477 z" />
    <path d="m 58.634124,58.710594 3.832,-7.177 c 0.131,-0.248 0.408,-0.383 0.686,-0.336 l 3.455,0.594 c 5.443,-3.613 11.67,-5.795 18.306,-6.108 l 2.08,-0.037 c 2.711,0.033 5.405,0.375 8.039,1.027 2.336,-1.487 4.774,-2.72 7.283996,-3.697 l 0.021,-0.604 c 0.014,-0.301 0.008,-0.603 -0.012,-0.92 -0.048,-0.792 -0.308,-1.632 -0.769,-2.498 -0.535,-1.007 -1.648996,-2.013 -3.317996,-2.988 -1.51,-0.882 -3.481,-1.449 -5.213,-1.91 -2.323,-0.618 -3.973,-2.732 -4.004,-5.139 -0.033,-2.403 1.554,-4.56 3.859,-5.245 1.145,-0.34 2.391,-0.683 3.713,-0.968 -10.182,-13.235 -27.023,-18.06 -39.514,-10.641 -2.152,1.277 -4.047,2.842 -5.675,4.634 -5.881,-0.446 -11.717,0.756 -16.889,3.827 -5.172,3.073 -9.02,7.622 -11.445,12.999 -2.352,0.571 -4.631,1.486 -6.78,2.762 -13.6950001,8.133 -16.9780001,27.893 -7.3300001,44.137 8.5180001,14.343 24.2660001,21.139996 37.2600001,16.938 -0.113,-1.45 -0.176,-2.917 -0.176,-4.4 0,-4.451 0.529,-8.759 1.518,-12.846 l -5.102,-0.446 c -1.418,-0.124 -2.855,-0.262 -4.248,-0.395 l -7.244,-0.697 c -0.311,-0.03 -0.557,-0.276 -0.586,-0.586 -0.031,-0.312 0.164,-0.598 0.463,-0.688 l 12.373,-3.671 4.529,-13.285 c 0.092,-0.265 0.342,-0.444 0.623,-0.441 l 9.164,0.08 c 0.361,-0.434 0.727,-0.86 1.1,-1.275 z m -0.631,-30.796 c 0.219,-0.125 0.49,-0.112 0.697,0.032 l 10.78,7.531 c 0.181,0.127 0.285,0.336 0.277,0.555 -0.006,0.222 -0.125,0.422 -0.313,0.537 l -9.761,5.924 c -0.004,10e-4 -0.006,0.002 -0.008,0.003 l -0.002,0.002 c -0.312,0.184 -0.711,0.083 -0.896,-0.228 -0.065,-0.111 -0.094,-0.234 -0.09,-0.355 l -1.016,-13.385 c -0.017,-0.253 0.113,-0.491 0.332,-0.616 z m -19.818,61.004 c 0.41,0.009 0.736,0.325 0.763,0.733 0.02,0.291 -0.132,0.576 -0.386,0.725 -0.086,0.052 -0.178,0.085 -0.278,0.102 -9.4,1.435 -19.529,-4.016 -25.195,-13.559 -5.6680001,-9.545 -5.6070001,-21.044 0.152,-28.614 0.061,-0.081 0.137,-0.147 0.223,-0.199 0.254,-0.151 0.568,-0.148 0.818,0.011 0.348,0.219 0.467,0.657 0.278,1.022 -3.889,7.553 -3.209,17.458 1.775,25.85 4.982,8.392 13.353,13.728 21.85,13.929 z m 3.587,-35.788 c -0.002,10e-4 -0.004,10e-4 -0.006,0.002 0,0.001 -0.004,0.002 -0.006,0.003 l -9.873,5.737 c -0.188,0.11 -0.424,0.117 -0.619,0.019 -0.197,-0.1 -0.332,-0.292 -0.354,-0.51 l -1.455,-13.072 c -0.027,-0.25 0.092,-0.494 0.307,-0.625 0.213,-0.132 0.482,-0.129 0.695,0.007 l 11.268,7.296 c 0.107,0.053 0.203,0.138 0.269,0.25 0.185,0.31 0.083,0.71 -0.226,0.893 z" />
</g>
</defs>

<g id="black"></g>
<g id="white"></g>
<g id="clear"></g>
<g id="light"></g>
<g id="orange"></g>

<use xlink:href="#pumpkins" />
</svg>
