<?xml version="1.0" encoding="iso-8859-1"?>
<!DOCTYPE svg PUBLIC "-//W3C//DTD SVG 1.1//EN" "http://www.w3.org/Graphics/SVG/1.1/DTD/svg11.dtd">
<svg xmlns="http://www.w3.org/2000/svg" xmlns:xlink="http://www.w3.org/1999/xlink" version="1.1" id="Capa_1" x="0px" y="0px" viewBox="0 0 240.00000 145.00000" xml:space="preserve">
<style>
#black:target ~ use,
#black:target ~ g {
    fill: black !important;
}

#white:target ~ use,
#white:target ~ g {
    fill: white;
}

#clear:target ~ use,
#clear:target ~ g {
    fill: #ff9812;
    fill-opacity: 0.09;
}

#light:target ~ use,
#light:target ~ g {
    fill: #000000;
    fill-opacity: 0.05;
}

#orange:target ~ use,
#orange:target ~ g {
    fill: #ff9812;
}

use {
    -webkit-transition: 1s fill;
    -moz-transition: 1s fill;
    transition: 1s fill;
}
</style>

<defs>
    <g id="pumpkins">
      <path d="M89.617,72.941c0.01,0.616,0.426,1.15,1.021,1.309c1.984,0.529,4.265,1.188,6.205,2.323    c2.354,1.376,3.938,2.872,4.84,4.572c0.732,1.378,1.146,2.77,1.23,4.137c0.027,0.465,0.031,0.897,0.018,1.306    c3.336-0.938,6.771-1.424,10.236-1.424c2.592,0,5.162,0.275,7.691,0.801c-0.025-0.063-0.048-0.128-0.072-0.19    c-2.484-6.32-7.189-11.385-12.912-13.897c-2.416-1.061-5.187-1.647-8.229-1.745c-3.262-0.105-6.424,0.692-9.047,1.47    C90.01,71.78,89.609,72.327,89.617,72.941z" />
      <path d="M143.191,93.739c-3.166,0-6.24,0.478-9.169,1.378c-6.112-4.289-13.239-6.751-20.854-6.751s-14.744,2.463-20.855,6.751    c-2.93-0.9-6.002-1.378-9.168-1.378c-20.159,0-36.504,19.385-36.504,43.298c0,23.912,16.345,43.298,36.504,43.298    c3.166,0,6.238-0.479,9.168-1.378c6.111,4.289,13.24,6.751,20.855,6.751s14.742-2.463,20.854-6.751    c2.929,0.899,6.003,1.378,9.169,1.378c20.159,0,36.504-19.386,36.504-43.298C179.695,113.123,163.351,93.739,143.191,93.739z     M125.652,127.27l7.547-15.226c0.145-0.287,0.436-0.464,0.754-0.459c0.319,0.006,0.604,0.195,0.735,0.485l6.867,15.166    c0.115,0.253,0.095,0.548-0.055,0.783c-0.15,0.236-0.408,0.379-0.689,0.381l-14.452,0.138c-0.002,0-0.007,0-0.007,0    c-0.004,0-0.006,0-0.006,0c-0.457,0-0.826-0.37-0.826-0.824C125.521,127.551,125.568,127.398,125.652,127.27z M84.779,127.238    l6.864-15.166c0.134-0.29,0.418-0.479,0.738-0.485c0.318-0.005,0.611,0.172,0.754,0.459l7.547,15.226    c0.084,0.128,0.131,0.281,0.131,0.444c0,0.455-0.368,0.824-0.825,0.824c0,0-0.002,0-0.004,0c-0.005,0-0.009,0-0.011,0    l-14.453-0.138c-0.276-0.002-0.536-0.146-0.688-0.381C84.685,127.785,84.664,127.491,84.779,127.238z M73.312,166.461    c-0.168,0.329-0.516,0.54-0.891,0.54c-0.125,0-0.25-0.022-0.365-0.069c-11.162-4.518-18.662-16.992-18.662-31.042    c0-14.052,7.5-26.526,18.66-31.042c0.119-0.048,0.246-0.073,0.371-0.073c0.375,0,0.717,0.208,0.887,0.541    c0.234,0.462,0.082,1.018-0.356,1.293c-9.115,5.706-14.777,16.925-14.777,29.281c0,12.354,5.662,23.573,14.777,29.278    C73.394,165.446,73.549,166,73.312,166.461z M154.551,149.25l-7.436,5.44c-1.429,1.045-2.904,2.125-4.367,3.176l-5.896,4.239    c-0.28,0.201-0.657,0.207-0.944,0.013l-6.654-4.495c-1.395-0.941-2.805-1.912-4.164-2.849c-0.611-0.42-1.223-0.84-1.834-1.259    l-0.02-0.014l-2.938,2.048l-6.707,4.812c-0.127,0.085-0.27,0.129-0.418,0.138c0,0-0.002,0.001-0.004,0.003    c-0.002-0.002-0.004-0.002-0.004-0.003c-0.183,0.009-0.363-0.042-0.519-0.151l-5.998-4.373l-3.549-2.474l-0.02,0.014    c-0.609,0.419-1.221,0.839-1.83,1.259c-1.363,0.938-2.771,1.907-4.164,2.849l-6.658,4.495c-0.287,0.194-0.662,0.188-0.94-0.013    l-5.9-4.239c-1.461-1.051-2.936-2.131-4.365-3.176l-7.436-5.44c-0.318-0.232-0.426-0.658-0.26-1.017    c0.17-0.357,0.565-0.544,0.948-0.448l15.84,4.002l13.517-11.533c0.27-0.229,0.658-0.262,0.963-0.078l10.375,6.283l10.375-6.283    c0.305-0.185,0.693-0.152,0.963,0.078l13.516,11.533l15.841-4.002c0.383-0.096,0.778,0.091,0.948,0.448    C154.978,148.592,154.867,149.018,154.551,149.25z" />
      <path d="M180.424,54.686c1.502,2.275,2.258,4.317,2.318,6.243c0.045,1.559-0.199,2.99-0.732,4.253    c-0.182,0.43-0.365,0.818-0.561,1.179c3.405,0.636,6.701,1.72,9.809,3.254c2.324,1.147,4.51,2.533,6.541,4.124    c0.008-0.066,0.014-0.135,0.021-0.202c0.569-6.767-1.406-13.393-5.425-18.178c-1.696-2.021-3.92-3.773-6.604-5.208    c-2.879-1.539-6.066-2.224-8.764-2.686c-0.605-0.105-1.209,0.207-1.474,0.763c-0.264,0.555-0.129,1.22,0.336,1.625    C177.433,51.208,179.185,52.807,180.424,54.686z" />
      <path d="M214.383,90.596c-2.84-1.402-5.805-2.333-8.83-2.824c-3.582-6.55-8.885-11.915-15.711-15.286    c-6.828-3.371-14.312-4.318-21.69-3.181c-2.228-2.103-4.771-3.892-7.609-5.293c-13.943-6.885-30.955-2.42-42.865,9.821    c1.574,1.565,2.99,3.324,4.205,5.247c6.537-6.825,15.229-10.653,23.799-10.017c0.129,0.009,0.252,0.043,0.365,0.099    c0.338,0.166,0.549,0.502,0.555,0.877c0.009,0.519-0.377,0.948-0.895,1c-8.133,0.823-15.887,5.389-21.543,12.398    c0.125,0.289,0.25,0.575,0.365,0.867c0.034,0.088,0.069,0.177,0.102,0.265l0.633,1.705c3.283,1.066,6.461,2.562,9.465,4.477    c2.771-0.686,5.611-1.034,8.466-1.034c3.014,0,5.948,0.389,8.778,1.122l8.078-6.627c0.244-0.202,0.584-0.243,0.873-0.107    c0.289,0.136,0.476,0.426,0.476,0.745l0.016,9.929c13.219,7.802,22.303,23.814,22.303,42.258c0,0.813-0.016,1.622-0.053,2.424    l0.387,0.897l15.976,3.424c0.385,0.083,0.657,0.428,0.651,0.823c-0.01,0.395-0.295,0.729-0.686,0.796l-9.074,1.587    c-1.742,0.306-3.547,0.621-5.322,0.915l-3.063,0.509c-1.496,7.054-4.351,13.488-8.22,18.9c0.564,0.325,1.142,0.639,1.734,0.931    c18.078,8.926,41.314-1.221,51.9-22.662S232.461,99.521,214.383,90.596z M198.088,119.909c-0.01,0.28-0.16,0.534-0.398,0.679    c-0.237,0.145-0.532,0.158-0.782,0.037l-13.023-6.276c-0.004-0.001-0.004-0.003-0.006-0.003c-0.002-0.001-0.004-0.001-0.006-0.003    c-0.408-0.202-0.576-0.695-0.375-1.104c0.074-0.146,0.184-0.262,0.313-0.341l13.511-10.309c0.252-0.194,0.596-0.224,0.877-0.078    c0.282,0.146,0.459,0.442,0.444,0.76L198.088,119.909z" />
      <path d="M10.096,64.102c1.563-0.441,3.375-0.913,5.152-0.925c2.154-0.014,3.832,0.362,5.133,1.154    c1.053,0.64,1.896,1.418,2.504,2.314c0.205,0.304,0.383,0.595,0.539,0.879c1.887-1.983,4.023-3.7,6.379-5.097    c1.76-1.046,3.619-1.897,5.547-2.557c-0.041-0.034-0.084-0.069-0.127-0.1c-4.233-3.291-9.475-4.834-14.373-4.231    c-2.071,0.254-4.188,0.972-6.295,2.134c-2.258,1.245-4.084,3.06-5.553,4.647c-0.33,0.357-0.381,0.891-0.127,1.305    C9.129,64.04,9.629,64.235,10.096,64.102z" />
      <path d="M55.211,102.787l3.832-7.177c0.131-0.248,0.408-0.383,0.686-0.336l3.455,0.594c5.443-3.613,11.67-5.795,18.306-6.108    l2.08-0.037c2.711,0.033,5.405,0.375,8.039,1.027c2.336-1.487,4.774-2.72,7.284-3.697l0.021-0.604    c0.014-0.301,0.008-0.603-0.012-0.92c-0.048-0.792-0.308-1.632-0.769-2.498c-0.535-1.007-1.649-2.013-3.318-2.988    c-1.51-0.882-3.481-1.449-5.213-1.91c-2.323-0.618-3.973-2.732-4.004-5.139c-0.033-2.403,1.554-4.56,3.859-5.245    c1.145-0.34,2.391-0.683,3.713-0.968C82.988,53.546,66.147,48.721,53.656,56.14c-2.152,1.277-4.047,2.842-5.675,4.634    c-5.881-0.446-11.717,0.756-16.889,3.827c-5.172,3.073-9.02,7.622-11.445,12.999c-2.352,0.571-4.631,1.486-6.78,2.762    c-13.695,8.133-16.978,27.893-7.33,44.137c8.518,14.343,24.266,21.14,37.26,16.938c-0.113-1.45-0.176-2.917-0.176-4.4    c0-4.451,0.529-8.759,1.518-12.846l-5.102-0.446c-1.418-0.124-2.855-0.262-4.248-0.395l-7.244-0.697    c-0.311-0.03-0.557-0.276-0.586-0.586c-0.031-0.312,0.164-0.598,0.463-0.688l12.373-3.671l4.529-13.285    c0.092-0.265,0.342-0.444,0.623-0.441l9.164,0.08C54.472,103.628,54.838,103.202,55.211,102.787z M54.58,71.991    c0.219-0.125,0.49-0.112,0.697,0.032l10.78,7.531c0.181,0.127,0.285,0.336,0.277,0.555c-0.006,0.222-0.125,0.422-0.313,0.537    L56.26,86.57c-0.004,0.001-0.006,0.002-0.008,0.003l-0.002,0.002c-0.312,0.184-0.711,0.083-0.896-0.228    c-0.065-0.111-0.094-0.234-0.09-0.355l-1.016-13.385C54.231,72.354,54.361,72.116,54.58,71.991z M34.762,132.995    c0.41,0.009,0.736,0.325,0.763,0.733c0.02,0.291-0.132,0.576-0.386,0.725c-0.086,0.052-0.178,0.085-0.278,0.102    c-9.4,1.435-19.529-4.016-25.195-13.559c-5.668-9.545-5.607-21.044,0.152-28.614c0.061-0.081,0.137-0.147,0.223-0.199    c0.254-0.151,0.568-0.148,0.818,0.011c0.348,0.219,0.467,0.657,0.278,1.022c-3.889,7.553-3.209,17.458,1.775,25.85    C17.894,127.458,26.265,132.794,34.762,132.995z M38.349,97.207c-0.002,0.001-0.004,0.001-0.006,0.002    c0,0.001-0.004,0.002-0.006,0.003l-9.873,5.737c-0.188,0.11-0.424,0.117-0.619,0.019c-0.197-0.1-0.332-0.292-0.354-0.51    l-1.455-13.072c-0.027-0.25,0.092-0.494,0.307-0.625c0.213-0.132,0.482-0.129,0.695,0.007l11.268,7.296    c0.107,0.053,0.203,0.138,0.269,0.25C38.76,96.624,38.658,97.024,38.349,97.207z" />
    </g>
</defs>

<g id="black"></g>
<g id="white"></g>
<g id="clear"></g>
<g id="light"></g>
<g id="orange"></g>

<use xlink:href="#pumpkins" transform="translate(3.4231239,-44.076406)" />
</svg>
