<?xml version="1.0" encoding="utf-8"?>
<!DOCTYPE svg PUBLIC "-//W3C//DTD SVG 1.1//EN" "http://www.w3.org/Graphics/SVG/1.1/DTD/svg11.dtd">
<svg
    version="1.1"
    id="SEN"
    xmlns="http://www.w3.org/2000/svg"
    xmlns:xlink="http://www.w3.org/1999/xlink"
    x="0px"
    y="0px"
    width="345px"
    height="157px"
    viewBox="0 0 345 157"
    enable-background="new 0 0 345 157"
    xml:space="preserve"
    preserveAspectRatio="xMinYMax meet"
>
<style>
    #black:target ~ use,
    #black:target ~ g {
        fill: black;
    }
    
    #white:target ~ use,
    #white:target ~ g {
        fill: white;
    }
    
    #gray:target ~ use,
    #gray:target ~ g {
        fill: rgb(208, 190, 190);
    }

    #light:target ~ use,
    #light:target ~ g {
        fill: #F0EBEB;
    }
</style>

<defs>
    <path id="s" d="M22.872,23.909v44.174H78.09c1.963,0,3.762,0.165,5.399,0.491c1.634,0.33,3.025,1.312,4.172,2.945
        c0.817,1.146,1.266,2.331,1.35,3.558c0.081,1.227,0.123,2.577,0.123,4.049v66.262c0,0.982-0.165,2.251-0.491,3.805
        c-0.33,1.557-0.901,2.906-1.718,4.049c-1.146,1.312-2.619,2.171-4.417,2.577c-1.802,0.41-3.275,0.613-4.417,0.613H11.828
        c-1.146,0-2.454-0.241-3.926-0.729c-1.473-0.487-2.784-1.22-3.927-2.193c-1.312-1.135-2.17-2.478-2.577-4.019
        c-0.411-1.542-0.614-2.884-0.614-4.022v-22.168h21.596v11.044h44.666V90.171H12.074c-0.821,0-2.17-0.161-4.049-0.491
        c-1.883-0.326-3.397-1.063-4.54-2.209c-1.146-1.143-1.883-2.615-2.209-4.417c-0.33-1.798-0.491-3.106-0.491-3.927V12.866
        C0.62,9.595,1.602,6.895,3.729,4.767c2.125-2.125,4.824-3.106,8.099-2.945H78.09c0.981,0,2.454,0.084,4.417,0.245
        c1.963,0.165,3.597,0.901,4.908,2.209c1.308,1.312,1.921,2.864,1.84,4.663c-0.084,1.802-0.123,3.11-0.123,3.927v24.541H67.046
        V23.909H22.872z"/>
    <path id="e" d="M210.612,112.258v44.175H111.22v-22.087H123V23.909h-11.78V1.822h99.393v44.174h-22.087V23.909h-44.175v44.174h35.094
        v22.087h-35.094v44.175h44.175v-22.088H210.612z"/>
    <path id="n" d="M331.354,4.031c2.125,2.454,2.78,5.319,1.964,8.589v121.726h11.043v22.087h-44.174v-22.087h11.043V22.682h-45.401v111.664
        h11.044v22.087h-44.174v-22.087h11.043V22.682h-11.043V0.595h89.575C326.035,0.104,329.061,1.251,331.354,4.031z"/>
</defs>

<g id="black"></g>
<g id="white"></g>
<g id="gray"></g>
<g id="light"></g>

<use xlink:href="#s" />
<use xlink:href="#e" />
<use xlink:href="#n" />

<g>
    <use xlink:href="#s" />
    <use xlink:href="#e" />
    <use xlink:href="#n" />
</g>
</svg>
