<svg
enable-background="new 0 0 512 512"
viewBox="0 0 512 512"
xmlns="http://www.w3.org/2000/svg"
xmlns:xlink="http://www.w3.org/1999/xlink"
>
<defs>
    <linearGradient id="linear-gradient" y1="220.67" x2="759.86" y2="220.67" gradientUnits="userSpaceOnUse">
        <stop offset="0" stop-color="#ed3b6e" />
        <stop offset="1" stop-color="#f3702f" />
    </linearGradient>
    <style>
    use {
        display: none;
    }

    use:target {
        display: block;
    }

    #gray {
        fill: #b09090 !important;
    }

    #white {
        fill: #fff !important;
    }

    #selected {
        fill: url(#linear-gradient) !important;
    }
    </style>
    <g id="main">
        <path d="m308.165 103.944-26.682-4.018-12.067-24.134c-2.541-5.082-7.734-8.292-13.416-8.292s-10.875 3.21-13.417 8.292l-12.067 24.134-26.681 4.018c-5.618.846-10.276 4.794-12.032 10.198-1.76 5.414-.299 11.344 3.74 15.322l19.224 18.934-4.423 26.617c-.932 5.605 1.384 11.255 5.98 14.594 4.588 3.334 10.676 3.8 15.728 1.178l23.948-12.432 23.947 12.432c5.044 2.618 11.132 2.161 15.728-1.178 4.597-3.339 6.912-8.989 5.98-14.594l-4.423-26.617 19.224-18.934c4.048-3.987 5.496-9.919 3.74-15.322s-6.413-9.352-12.031-10.198zm-37.532 28.544c-7.14 7.032-3.488 15.84-3.489 17.85l-4.233-2.197c-4.332-2.249-9.489-2.249-13.822 0l-4.233 2.197c.387-3.525 1.852-6.905.25-11.809-1.596-4.916-4.775-6.78-7.138-9.388 2.45-.369 4.904-.739 4.802-.724 9.874-1.545 11.905-10.507 13.229-12.377l2.133 4.266c4.482 8.963 13.982 8.21 15.898 8.835z"/>
        <path d="m497 30h-76.19c.122-4.962.19-9.96.19-15 0-8.284-6.716-15-15-15h-300c-8.284 0-15 6.716-15 15 0 5.04.068 10.038.19 15h-76.19c-8.284 0-15 6.716-15 15v37.994c0 83.927 66.614 152.682 150.063 156.808 17.391 23.716 37.88 40.882 60.679 50.685-2.034 40.567-15.714 73.422-27.335 94.443-13.827 25.013-27.898 39.346-28.014 39.463v.001c-2.746 2.745-4.393 6.604-4.393 10.606v47h-15c-8.284 0-15 6.716-15 15s6.716 15 15 15h240c8.284 0 15-6.716 15-15s-6.716-15-15-15h-15v-47c0-3.807-1.523-7.736-4.393-10.606 0 0 0 0 0-.001-.534-.534-51.317-52.252-55.353-133.905 22.802-9.803 43.292-26.969 60.683-50.687 83.449-4.125 150.063-72.88 150.063-156.807v-37.994c0-8.284-6.716-15-15-15zm-467 52.994v-22.994h62.701c3.867 50.117 14.865 102.446 37.371 146.945-57.193-12.68-100.072-63.437-100.072-123.951zm151 399.006v-32h150v32zm100.426-216.085c-6.211 1.989-10.426 7.764-10.426 14.286 0 63.591 25.044 112.199 43.917 139.799h-117.834c18.873-27.6 43.917-76.208 43.917-139.799 0-6.522-4.214-12.297-10.426-14.286-35.569-11.388-60.587-44.451-76.662-78.484-19.916-42.166-31.147-96.341-32.72-157.431h269.617c-1.573 61.09-12.805 115.265-32.722 157.431-15.915 33.694-40.882 67.028-76.661 78.484zm200.574-182.921c0 60.514-42.879 111.271-100.073 123.951 22.506-44.499 33.505-96.827 37.371-146.946h62.702z"/>
    </g>
</defs>
<g>
<use xlink:href="#main" id="gray"></use>
<use xlink:href="#main" id="white"></use>
<use xlink:href="#main" id="selected"></use>
</g>
</svg>
