<?xml version="1.0" encoding="iso-8859-1"?>
<!DOCTYPE svg PUBLIC "-//W3C//DTD SVG 1.1//EN" "http://www.w3.org/Graphics/SVG/1.1/DTD/svg11.dtd">
<svg version="1.1" id="Capa_1" xmlns="http://www.w3.org/2000/svg" xmlns:xlink="http://www.w3.org/1999/xlink" x="0px" y="0px"
     viewBox="0 0 64.000 60.001" xml:space="preserve">
<style>
.default {
    fill: #524847 !important;
}

#gray:target ~ use {
    fill: #c1d1d0 !important;
}

use {
    -webkit-transition: 1s fill;
    -moz-transition: 1s fill;
    transition: 1s fill;
}
</style>

<defs>
<g id="main">
    <path d="m 27.209581,0.0233467 c -0.46,-0.102 -0.928,0.138 -1.122,0.568 L 0.08758058,58.591347 c -0.139,0.31 -0.111,0.668 0.073,0.953 0.184,0.284 0.5,0.456 0.839,0.456 l 26.00000042,0 c 0.552,0 1,-0.447 1,-1 l 0,-58.0000003 c 0.001,-0.471 -0.328,-0.878 -0.79,-0.977 z" />
    <path d="m 36.790419,0.02399905 c 0.46,-0.102 0.928,0.138 1.122,0.568 l 26,57.99999995 c 0.139,0.31 0.111,0.668 -0.073,0.953 -0.184,0.284 -0.5,0.456 -0.839,0.456 l -26,0 c -0.552,0 -1,-0.447 -1,-1 l 0,-57.9999999 c -10e-4,-0.47100005 0.328,-0.87800005 0.79,-0.97700005 z" />
</g>
</defs>

<g class="default">
    <g id="gray"></g>

    <use xlink:href="#main" />
</g>
</svg>
