<?xml version="1.0" encoding="UTF-8"?>
<!DOCTYPE svg PUBLIC "-//W3C//DTD SVG 1.1//EN" "http://www.w3.org/Graphics/SVG/1.1/DTD/svg11.dtd">
<svg
    version="1.1"
    xmlns="http://www.w3.org/2000/svg"
    xmlns:xlink="http://www.w3.org/1999/xlink"
    viewBox="0 0 94.859 94.858"
>
<style>
.default {
    fill: #524847 !important;
}

#gray:target ~ use {
    fill: #c1d1d0 !important;
}

#white:target ~ use {
    fill: #c1d1d0 !important;
}

use {
    -webkit-transition: 1s fill;
    -moz-transition: 1s fill;
    transition: 1s fill;
}
</style>

<defs>
<g id="main">
    <path d="M17.312,41.757h60.236c0.77,0,1.469-0.44,1.802-1.133c0.334-0.691,0.241-1.514-0.237-2.114L48.994,0.753
        C48.614,0.277,48.039,0,47.431,0s-1.184,0.277-1.563,0.753L15.748,38.51c-0.479,0.601-0.572,1.423-0.238,2.114
        C15.843,41.317,16.542,41.757,17.312,41.757z" />
    <path d="M77.547,53.102H17.312c-0.769,0-1.469,0.439-1.802,1.133c-0.334,0.691-0.241,1.514,0.238,2.113l30.119,37.758
        c0.38,0.476,0.955,0.753,1.563,0.753s1.184-0.277,1.563-0.753L79.11,56.348c0.479-0.601,0.571-1.422,0.237-2.113
        C79.016,53.541,78.317,53.102,77.547,53.102z" />
</g>
</defs>

<g class="default">
    <g id="gray"></g>
    <g id="white"></g>

    <use xlink:href="#main" />
</g>
</svg>
