<?xml version="1.0" encoding="iso-8859-1"?>
<!-- Generator: Adobe Illustrator 18.0.0, SVG Export Plug-In . SVG Version: 6.00 Build 0)  -->
<!DOCTYPE svg PUBLIC "-//W3C//DTD SVG 1.1//EN" "http://www.w3.org/Graphics/SVG/1.1/DTD/svg11.dtd">
<svg version="1.1" xmlns="http://www.w3.org/2000/svg" xmlns:xlink="http://www.w3.org/1999/xlink" x="0px" y="0px"
	 viewBox="0 0 493.859 493.859"
	 xml:space="preserve">
<g fill="#524847">
	<path d="M150.976,317.916l-71.003-71.004l71.003-71.004c12.94-12.941,12.94-33.902,0-46.842
		c-12.923-12.939-33.901-12.939-46.839,0L9.704,223.49C3.493,229.702,0,238.128,0,246.912c0,8.783,3.493,17.209,9.704,23.42
		l94.433,94.424c6.469,6.469,14.944,9.705,23.42,9.705c8.475,0,16.958-3.236,23.419-9.705
		C163.916,351.816,163.916,330.855,150.976,317.916z"/>
	<path d="M484.153,223.49l-94.431-94.424c-12.94-12.939-33.918-12.939-46.841,0
		c-12.939,12.939-12.939,33.9,0,46.842l71.004,71.004l-71.004,71.004c-12.939,12.939-12.939,33.9,0,46.84
		c6.463,6.469,14.946,9.705,23.421,9.705c8.475,0,16.95-3.236,23.42-9.705l94.431-94.424c6.211-6.211,9.706-14.637,9.706-23.42
		C493.859,238.128,490.364,229.702,484.153,223.49z"/>
	<path d="M322.405,58.644c-16.877-6.842-36.278,1.199-43.193,18.131L150.346,391.976
		c-6.922,16.934,1.189,36.277,18.123,43.201c4.1,1.666,8.346,2.475,12.526,2.475c13.053,0,25.426-7.779,30.667-20.605
		l128.866-315.199C347.45,84.912,339.34,65.568,322.405,58.644z"/>
</g>
</svg>
